<?xml version="1.0" standalone="no"?>
<!DOCTYPE svg PUBLIC "-//W3C//DTD SVG 1.1//EN" "http://www.w3.org/Graphics/SVG/1.1/DTD/svg11.dtd" >
<svg>
<metadata>
Created by FontForge 20090622 at Wed Mar 21 08:29:02 2018
 By deploy user
Diwan Software Ltd. 1992-2009 all rights reserved.
</metadata>
<defs>
<font id="GeezaPro-Bold" horiz-adv-x="0" >
  <font-face 
    font-family="Geeza Pro"
    font-weight="700"
    font-stretch="normal"
    units-per-em="2212"
    panose-1="2 0 4 0 0 0 0 0 0 0"
    ascent="1769"
    descent="-443"
    bbox="-329 -1257 14235 2644"
    underline-thickness="100"
    underline-position="-800"
    unicode-range="U+0020-U+FEFC"
  />
<missing-glyph horiz-adv-x="992" 
d="M142 226v1362h700v-1362h-700zM284 368h416v1079h-416v-1079z" />
    <glyph glyph-name="rial" unicode="&#xfdfc;" horiz-adv-x="2213" arabic-form="isolated" 
d="M954 1253l-62 -166v-1006q0 -140 -157 -277q-141 -124 -301 -124q-76 0 -139 32.5t-108.5 90t-70 137.5t-24.5 175q0 140 42 276q20 63 35 90t24 27q0 -19 -3.5 -56.5t-9 -79t-9.5 -79.5t-4 -58q0 -197 97 -288q105 -99 207 -99q41 0 85.5 21.5t84.5 55.5t72.5 78.5
t50.5 91.5v1080l-32 212l134 171l13 -206zM1733 272q0 -173 -39 -173h-396v1q-83 0 -133 22.5t-73.5 71t-23.5 171.5v1027l120 188v-1215q0 -73 54 -73h369q11 -1 11 26q0 20 -10 57.5t-24 74.5t-30 64.5t-26 27.5l70 209q49 -27 92 -218q39 -169 39 -261zM2131 199
q0 -255 -162 -435q-140 -156 -269 -156q-163 0 -322 272q13 -16 37 -31q32 -17 79 -34q40 -14 75 -20.5t64 -6.5q259 0 407 350q9 26 9 50q0 137 -165 279l74 188q39 -30 70.5 -79t54.5 -110t35.5 -129.5t12.5 -137.5zM1245 -691l57 147l162 -125l-64 -144zM1622 -795
l-158 126l60 134l161 -120zM1375 -164q-2 3 -3 5q2 -2 3 -5z" />
    <glyph glyph-name="ufdfa.sallallahouAlayheWasallam" unicode="&#xfdfa;" horiz-adv-x="2729" arabic-form="isolated" 
d="M2344 1009q0 -50 -20 -50q-2 3 -2 29q-1 127 -80 185q-7 8 -5 35q1 26 7 26q22 0 54 -49q46 -68 46 -176zM2278 570q0 -100 -20 -104q-24 -6 -24 69q0 85 -44 265.5t-44 258.5q0 16 13.5 64t20.5 48q6 0 6 -21v-27q0 -4 1 -7q91 -392 91 -546zM1847 924q0 -113 -27 -113
q-9 0 -11 69q-3 90 -60 283q-55 187 -55 282q0 123 24 123q8 0 14 -49q8 -67 63 -308q52 -229 52 -287zM1518 1497q0 -27 -15 -52q-15 -30 -39 -30q-19 0 -29 16q-25 -35 -51 -35q-50 0 -50 57q0 54 25 58q3 -4 6 -10l-3 -20q11 -34 22 -34q23 0 35 34q13 39 16 41
q8 3 10 -22q3 -28 26 -28q20 0 21 26q1 37 14 37q12 0 12 -38zM2517 724q0 -116 -47 -198q-107 -189 -212 -189q-108 0 -208 46q-33 16 -35 15q0 3 3 5q2 6 28 3q50 -6 97 -6q105 0 222 97q101 83 116 139q6 23 -11 54q-23 -73 -77 -73q-77 0 -77 79q0 49 30 114
q33 72 74 72q44 0 73 -60q24 -50 24 -98zM1993 749q0 -27 -14 -54q-18 -32 -41 -32q-18 0 -31 16q-23 -32 -49 -32q-49 0 -49 55q0 53 25 57q2 -3 5 -6q-4 -17 -3 -24q10 -30 22 -30q25 0 35 31q13 38 18 40q1 0 13.5 -25t21.5 -25q18 0 20 29q3 32 7 34t6 2q14 0 14 -36z
M1266 1371q2 -4 2 -8q0 -7 -5 -21q-10 -22 -17 -18q-5 3 -19 14q-35 -60 -104 -99q-23 -13 -49 -13q-8 0 -9 2q6 4 42 34q41 27 102 87q-59 44 -59 66q0 30 27.5 62.5t58.5 30.5q24 -1 24 -47q0 -31 -14 -76q16 -6 20 -14zM1638 987q0 -124 -65 -124q-68 0 -102 42l-22 43
q-48 -144 -145 -144q-66 0 -94 68q-15 35 -15 74q-18 -20 -34 -42q-23 -24 -77 -24q-98 0 -98 54q0 47 103 108l86 48q26 19 39 73q10 40 18 40q11 0 6 -46q-14 -128 6 -181q23 -57 77 -60q68 -4 101 73q6 12 6 48q0 37 -8.5 109.5t-8.5 109.5q0 82 17 82q4 -6 13 -46
q15 -129 47 -283q15 -22 57 -33q37 -9 52 0q-73 256 -73 272q0 18 11.5 63.5t15.5 45.5q1 -9 14 -59l40 -151q33 -127 33 -160zM2505 -76q0 -95 -106 -105q-60 -6 -69 -11q-37 -20 -117 -92q-65 -58 -122 -70q-32 -7 -32 2q6 6 60 36q31 17 118 97q66 61 71 65q34 23 88 24
q23 53 49 86q20 19 47 2q13 -8 13 -34zM1036 1215q0 -31 -25 -42q-277 -124 -306 -124q-6 0 -6 7q0 24 27 44q15 10 154 67q133 52 144 56q1 0 6 2q6 0 6 -10zM2632 255q0 -64 -51 -120q-89 -100 -306 -100q-58 0 -99 8q-34 -40 -44 -68q-4 -12 -16 -12q-9 0 -9 12
q0 23 30 77q-38 13 -56 40l-17 37l-49 -66q-43 -58 -108 -58q-61 0 -96 41q0 -65 -13 -93q40 -16 93 -16q12 0 34.5 1.5t34.5 1.5q39 0 52 -20q8 -14 8 -34q0 -63 -36 -106q-37 -54 -142 -109q-124 -64 -236 -64q-98 0 -152 71q-50 65 -49 165q0 29 9 58h-16q-81 0 -139 66
l-43 68q-27 -134 -62 -134q-40 25 -102 57q-93 -132 -365 -132q-128 0 -196 84l-48 92l-33 -47q-29 -27 -88 -27q-31 0 -70 14q-50 16 -50 41q0 57 102 122l109 70q0 21 1 61q2 56 17 56q8 0 15 -54q45 -302 273 -302q161 0 266 56l83 60l40 -20.5t60 -20.5q22 0 22 46
q0 79 -29 355l-27 260q14 109 25 109q5 0 13 -71q39 -383 65 -504q28 -129 86 -157q-3 13 -3 28q0 66 47 149q53 92 115 92q33 0 87 -31t45 -46q2 4 -41 9q-65 5 -131 -26q-54 -26 -61 -47q-8 -25 22 -83q35 -67 85 -67q82 0 213 130q6 0 6 -8q0 -91 -114 -173
q-72 -53 -144 -70v-11q0 -90 79 -144q54 -37 89 -37q78 0 198 42q132 46 167 100q-23 12 -86 12q-89 0 -91 -1q-52 5 -52 28q0 4 13 38.5t13 57.5q0 74 -61 455q-55 21 -77 61l-27 51q-51 -76 -104 -76q-32 0 -68 9q-50 15 -50 38q0 43 92 115q84 66 106 66q7 35 7 101
q5 36 14 36q11 0 11 -30q0 -188 80 -245q-5 43 -5 42q0 129 21 129q9 0 17 -52q7 -46 19 -140q40 -11 102 -11q78 0 156 32q53 23 49 64q0 14 -28.5 181t-32.5 176q-16 73 -16 78q0 19 10 63t15 44q8 0 9 -18q1 -25 10 -36q16 -5 41 -24q6 -9 6 -27q0 -17 -20 -105
q-3 -9 22 -165.5t25 -171.5q0 -93 -41 -132q-69 -66 -230 -66q-45 0 -63 2q27 -196 52 -238q46 -79 105 -79q60 0 158 101q2 0 49 -30t71 -36l4 3q37 37 124 98q114 80 161 80t87 -16q53 -22 53 -63zM1458 463q7 0 -14 -38q-6 -12 -83 -54q-3 -3 -50 -37q-29 -22 -53 -22
q-8 0 -2 19q8 19 24 33l169 96q6 3 9 3zM589 1250q0 -25 -15 -52q-17 -30 -40 -30q-21 0 -31 17q-23 -37 -52 -37q-49 0 -49 59q0 48 27 57q3 -5 5 -9q-3 -16 -2 -21q0 -33 19 -33q25 0 38.5 35t16.5 36t4 1q2 0 11 -25t18 -25q18 0 21.5 29.5t7.5 33t8 3.5q13 0 13 -39z
M1049 776q0 -40 -14 -85q-18 -58 -49 -58q-28 0 -99 27l-27 -49q-19 -19 -75 -19q-91 0 -114 19q-41 -18 -82 -18q-76 0 -116 56q-7 -82 -46 -120q55 -34 55 -83q0 -40 -18 -87q-20 -61 -54 -61q-56 0 -99 34q-35 -59 -52 -76q-31 -29 -112 -65q-50 -21 -50 -14q0 21 86 87
q98 75 106 86q-10 63 -10 69q0 56 43 107q6 8 45 23q35 12 46 38q5 12 5 44q0 66 -19 196.5t-19 195.5q0 112 22 112q6 -1 14 -64q8 -72 23 -151q20 -122 50 -155q56 -63 121 -63q63 0 107 43q2 4 14 31q9 19 19 19q4 -1 4 -11q0 -15 -15 -82q126 0 136 20.5t26 59.5
q18 43 27 43q3 -2 3 -17q0 -18 -3 -54q17 -13 43 -19q27 -7 31 0q5 4 2 12q-4 16 -4 26q0 12 12 45.5t21 33.5q16 0 16 -76zM1112 466q0 -211 -127 -336q-71 -71 -139 -71q-95 0 -206 89q-28 23 -29 27q0 9 8 9q-33 0 34 -21t94 -21q119 0 229 90q85 69 101 116q7 23 -3 68
q-25 -82 -86 -82q-32 0 -54 31q-19 28 -19 63q0 46 31 111q37 72 78 72q34 0 64 -57q24 -51 24 -88zM868 461q-3 -80 -62 -80q-21 0 -23 11q-46 -18 -44 -19q-7 0 -19.5 1t-18.5 1q-26 -4 -90 -61q-59 -51 -86 -51q-25 0 -26 3q1 2 15 7q22 9 107 85q76 67 107 67q8 0 22 -6
q7 -2 14 6q6 23 24 49l9 -6q-1 -16 0 -21q4 -12 22 -12q16 0 28.5 25l12.5 25zM1084 -240l-46 -98l-96 46l-43 -82l-114 55l53 104l93 -46l44 82zM2437 745q-23 27 -41 25q-22 -5 -22 -27q0 -21 38 -17q13 3 25 19zM1227 1434q0 24 -16 24q-22 0 -22 -24q2 -14 36 -35
q2 11 2 35zM2549 200q0 12 -37 25q-31 11 -47 11q-83 0 -176 -86l-9 -5q14 -3 44 -3q32 0 125 20q100 22 100 38zM2470 -103q0 14 -25 14q-13 -5 -25 -37q50 6 50 23zM1603 597l-11 72q-3 -8 -39 -44q-29 -29 -29 -38q0 -7 37 -4q39 5 42 14zM1197 1053q-41 -28 -88 -69
q-4 -6 23 -6q50 0 63 15q3 4 3 27q0 14 -1 33zM1038 463q-15 31 -32 31q-34 0 -34 -34q0 -18 39 -14q12 3 27 17zM434 419q0 15 -36.5 40.5t-52.5 25.5q-9 0 -9 -9q0 -27 27 -46.5t55 -19.5q16 0 16 9zM429 41q15 11 -6 84q-33 -42 -65 -64q-22 -16 -22 -23q0 -9 40 -8
t53 11z" />
    <glyph glyph-name="ufdfb.jallajalalouhou" unicode="&#xfdfb;" horiz-adv-x="2268" arabic-form="isolated" 
d="M1742 866q0 -38 -13 -31q1 0 -15 8t-31 8q-28 0 -28 -16q0 -7 25 -81q0 -51 -4 -53q-14 0 -34 61q-19 56 -19 79q0 71 63 71q56 0 56 -46zM1986 463q0 -72 -59 -72q-30 0 -54.5 25.5t-24.5 55.5q0 20 12 59q15 47 29 44q11 -4 5 -34q-7 -40 -8 -44q0 -37 34 -37
q10 0 23.5 20t23.5 20q19 5 19 -37zM1948 760q-10 -39 -49 -107q-198 -103 -300 -175q-5 51 59 116q41 42 290 166zM1082 1564q0 -47 -34 -94q-103 -67 -251 -172q17 42 57 106q23 23 113 87t115 73zM1638 698q0 -38 -8 -38q-2 3 -13 21q-34 61 -51 69q-7 -1 -17 -1
q-20 0 -44 5q-20 9 -20 46q0 44 35 44q36 0 77 -54t41 -92zM1452 1122q-4 -27 -45 -93q-70 -43 -262 -178q6 53 69 115q28 29 117 86q83 54 121 70zM1445 891q0 -29 -18 -58q-21 -33 -48 -33q-5 0 -20 7q-10 4 -21 -4q-37 -18 -43 -18q-53 0 -53 50q0 13 9 39q11 30 19 30
q4 0 9.5 -28t15.5 -28q25 0 34 15.5t17.5 32t19.5 16.5q7 0 11.5 -23t16.5 -23q7 0 22 28t23 25q6 -2 6 -28zM2092 -53q12 0 -6 -41q-42 -94 -122 -94q-50 0 -50 34q0 21 20.5 61.5t20.5 42.5q0 11 -10 11q-8 0 -25 -8q-23 -18 -29 -18q-3 0 -6.5 4t-3.5 11q0 25 24.5 46.5
t49.5 21.5q37 0 37 -37q0 -28 -18.5 -62t-18.5 -38q0 -14 28 -11t53 21q5 4 28 30t28 26zM828 1141q0 -8 -18 -31.5t-25 -21.5q0 16 -31 44q-30 -42 -97 -91q-52 -38 -113 -56q-27 -9 -31 0q-1 6 19 16q38 18 57 30q110 76 137 117q-69 37 -69 65q0 32 28 69.5t59 37.5
q41 0 41 -53q0 -54 -6 -69q49 -25 49 -57zM1117 713q0 -207 -91 -207q-104 0 -153 144q-15 -32 -45 -56q-28 -28 -90 -28q-25 0 -58 15q-38 18 -38 41q0 37 69 96l102 85q15 8 15 17q0 7 -1 21t-1 22q0 94 15 94q18 0 28 -50q37 -165 85 -241q28 -44 82 -44q37 0 37 22
q0 69 -51 287l-59 257q-16 26 -16 44q0 15 18 63.5t27 48.5q7 0 15 -27.5t9 -28.5q5 -5 32 -27q18 -15 18 -29q0 -6 -13 -43q-13 -40 -15 -51q15 -46 44 -186q35 -167 35 -239zM1845 -172q-18 -39 -43 -100q-71 20 -113 56q7 60 47 100q83 -29 109 -56zM2170 259
q2 -1 -27 -56.5t-33 -55.5q-5 1 -28 6q-60 4 -165 -34l-160 -64q-94 -37 -162 -37q-79 0 -125 48q-4 -96 -8 -127q-8 -80 -27 -96q-9 -8 -395 -28q-363 -18 -427 -18q-86 0 -111 4q-73 13 -73 62q0 94 31 94q6 0 19.5 -17.5t18.5 -20.5q15 -10 121 -10q113 0 437 18
q314 18 351 26q10 1 10 19q0 107 -59.5 324.5t-59.5 325.5q0 10 12 59q15 40 23 38q7 -17 26 -123q29 -167 39 -208q15 -70 42 -126q52 -109 121 -115q84 181 178 181q45 0 117 -20q171 -50 269 -49h45zM673 953q0 -25 -34 -76q-29 -46 -54 -67q-69 -60 -181 -60
q-76 0 -132 29q-50 14 -65 14q-4 0 -6 -2q-13 -6 -27.5 -33.5t-22.5 -27.5q-12 0 -12 16q0 41 31 102q33 68 68 68q15 0 83.5 -26.5t119.5 -26.5q115 0 169 44q23 18 38 49q12 22 18 22q7 0 7 -25zM970 506q0 -26 -51 -90q-37 -18 -209 -119q5 54 97 125q39 30 163 84z
M1335 237q3 -1 -21.5 -56.5t-28.5 -55.5q-8 0 -27 3.5t-29 3.5q-42 0 -208 -63t-236 -63q-87 0 -143 66q-32 36 -64 201l-37 190q-17 -124 -69 -331q-38 -91 -116 -157q-19 -16 -119.5 -56t-124.5 -40q-4 0 -5 2q-4 10 77 72l116 91q53 42 87 85q68 88 85 193l29 194
q22 134 40 134q8 -15 38 -106q26 -132 78 -322q44 -103 118 -97q27 65 74 120q59 70 114 70q22 0 92 -27q76 -29 102 -34q76 -17 178 -17zM401 513q0 -91 -20 -91q-8 0 -11 52q-3 93 -73 147q-8 5 -40 29q-8 14 -5 41q2 28 14 28q25 0 74 -57q61 -70 61 -149zM1125 -279
q-8 -31 -43 -96q-26 8 -106 43q6 51 50 113q61 -20 99 -60zM385 181q0 -46 -19 -46q-10 0 -15 28q-18 98 -94 187q-56 0 -103 22q-57 27 -57 78q0 101 47 101q44 0 103 -59q47 -46 75 -98q63 -113 63 -213zM753 1230q0 30 -27 30q-25 0 -25 -16q0 -13 18.5 -23t31.5 -8
q2 9 2 17zM1823 191q0 25 -106 25q-54 0 -107 -81q50 -5 134 21q79 25 79 35zM860 694q0 7 -7 30t-8 33q-25 -27 -85 -72q23 -9 62 -5q38 5 38 14zM1010 175q0 12 -40 22q-32 9 -51 9q-51 0 -93 -78q29 -1 102 14q82 17 82 33z" />
    <glyph glyph-name="u0671.isolated.glyphFB50" unicode="&#x671;" horiz-adv-x="647" arabic-form="isolated" 
d="M567 1491q0 -100 -72.5 -174t-171.5 -74q-30 0 -92 13.5t-91 13.5q-32 0 -64.5 -25t-39.5 -55q-21 10 -21 39q0 53 34 105q38 58 88 58q32 0 46 -2q168 212 273 212q111 0 111 -111zM500 1431q0 25 -31 46t-56 21q-43 0 -98 -41q-48 -35 -77 -77q44 -20 115 -20
q42 0 87 16q60 21 60 55zM338 -12v1099l210 157v-1077z" />
    <glyph glyph-name="u0671.final.glyphFB51" unicode="&#x671;" horiz-adv-x="702" arabic-form="final" 
d="M477 1535q0 -79 -57 -137t-135 -58q-23 0 -72 10.5t-72 10.5q-25 0 -50.5 -19.5t-30.5 -43.5q-17 8 -17 31q0 41 27 82q30 46 69 46q25 0 36 -2q132 167 215 167q87 0 87 -87zM424 1488q0 19 -24 35.5t-44 16.5q-34 0 -77 -32q-38 -28 -61 -61q35 -15 91 -15q33 0 68 12
q47 17 47 44zM529 99q-90 0 -144 20q-45 19 -74 46q-30 33 -39 79q-12 52 -12 132v764l210 188v-826q0 -84 74 -84h220v-319h-235z" />
    <glyph glyph-name="u067b.isolated.glyphFB52" unicode="&#x67b;" horiz-adv-x="1676" arabic-form="isolated" 
d="M1654 335q0 -216 -19 -220q-27 -21 -115 -38.5t-196 -36.5q-365 -53 -463.5 -58t-238.5 -5q-586 0 -586 402q0 152 87 283q28 61 133 164q-61 -166 -61 -222q0 -215 225 -286q58 -15 111.5 -25.5t176.5 -12.5q70 0 151.5 4.5t368.5 27.5q247 18 247 53q0 110 -194 297
l196 231q177 -116 177 -558zM836 -443l-156 127l164 193l166 -141l-153 -185l153 -127l-161 -190l-167 140z" />
    <glyph glyph-name="u067b.final.glyphFB53" unicode="&#x67b;" horiz-adv-x="1664" arabic-form="final" 
d="M1724 100h-112q-214 -56 -530.5 -91t-474.5 -35q-258 0 -414.5 103.5t-156.5 301.5q0 218 215 460q-57 -186 -57 -242q0 -167 151.5 -243t359.5 -80q243 0 506.5 35t263.5 44q0 139 -193 311l190 229q87 -54 137.5 -170.5t50.5 -305.5h64v-317zM871 -446l-156 127
l164 193l166 -141l-153 -185l153 -127l-161 -190l-167 140z" />
    <glyph glyph-name="u067b.initial.glyphFB54" unicode="&#x67b;" horiz-adv-x="908" arabic-form="initial" 
d="M909 336q0 -236 -65 -236h-844v317h650q22 0 22 37q0 27 -68.5 149.5t-87.5 122.5l170 264q82 -68 158 -298q65 -230 65 -356zM445 -320l-156 127l164 193l166 -141l-153 -185l153 -127l-161 -190l-167 140z" />
    <glyph glyph-name="u067b.medial.glyphFB55" unicode="&#x67b;" horiz-adv-x="914" arabic-form="medial" 
d="M974 100h-974v317h656q22 0 22 37q0 27 -57 133.5t-103 144.5l178 257q91 -102 145.5 -292.5t54.5 -279.5h78v-317zM478 -320l-156 127l164 193l166 -141l-153 -185l153 -127l-161 -190l-167 140z" />
    <glyph glyph-name="u067e.isolated.glyphFB56" unicode="&#x67e;" horiz-adv-x="1676" arabic-form="isolated" 
d="M1654 335q0 -216 -19 -220q-27 -21 -115 -38.5t-196 -36.5q-365 -53 -463.5 -58t-238.5 -5q-586 0 -586 402q0 152 87 283q28 61 133 164q-61 -166 -61 -222q0 -215 225 -286q58 -15 111.5 -25.5t176.5 -12.5q70 0 151.5 4.5t368.5 27.5q247 18 247 53q0 110 -194 297
l196 231q177 -116 177 -558zM1174 -261l-101 -161l-232 141l99 158zM841 -281l-99 -157l-226 133l99 161zM786 -594l91 159l214 -125l-97 -156z" />
    <glyph glyph-name="u067e.final.glyphFB57" unicode="&#x67e;" horiz-adv-x="1664" arabic-form="final" 
d="M1724 100h-112q-214 -56 -530.5 -91t-474.5 -35q-258 0 -414.5 103.5t-156.5 301.5q0 218 215 460q-57 -186 -57 -242q0 -167 151.5 -243t359.5 -80q243 0 506.5 35t263.5 44q0 139 -193 311l190 229q87 -54 137.5 -170.5t50.5 -305.5h64v-317zM1209 -264l-101 -161
l-232 141l99 158zM876 -284l-99 -157l-226 133l99 161zM821 -597l91 159l214 -125l-97 -156z" />
    <glyph glyph-name="u067e.initial.glyphFB58" unicode="&#x67e;" horiz-adv-x="908" arabic-form="initial" 
d="M909 336q0 -236 -65 -236h-844v317h650q22 0 22 37q0 27 -68.5 149.5t-87.5 122.5l170 264q82 -68 158 -298q65 -230 65 -356zM783 -138l-101 -161l-232 141l99 158zM450 -158l-99 -157l-226 133l99 161zM395 -471l91 159l214 -125l-97 -156z" />
    <glyph glyph-name="u067e.medial.glyphFB59" unicode="&#x67e;" horiz-adv-x="914" arabic-form="medial" 
d="M974 100h-974v317h656q22 0 22 37q0 27 -57 133.5t-103 144.5l178 257q91 -102 145.5 -292.5t54.5 -279.5h78v-317zM816 -138l-101 -161l-232 141l99 158zM483 -158l-99 -157l-226 133l99 161zM428 -471l91 159l214 -125l-97 -156z" />
    <glyph glyph-name="u0680.isolated.glyphFB5A" unicode="&#x680;" horiz-adv-x="1676" arabic-form="isolated" 
d="M1654 335q0 -216 -19 -220q-27 -21 -115 -38.5t-196 -36.5q-365 -53 -463.5 -58t-238.5 -5q-586 0 -586 402q0 152 87 283q28 61 133 164q-61 -166 -61 -222q0 -215 225 -286q58 -15 111.5 -25.5t176.5 -12.5q70 0 151.5 4.5t368.5 27.5q247 18 247 53q0 110 -194 297
l196 231q177 -116 177 -558zM827 -279l127 156l193 -164l-136 -161l176 -149l-141 -166l-185 153l-127 -153l-190 161l135 161l-175 149l140 167zM867 -589l122 150l-168 139l-123 -148z" />
    <glyph glyph-name="u0680.final.glyphFB5B" unicode="&#x680;" horiz-adv-x="1664" arabic-form="final" 
d="M1724 100h-112q-214 -56 -530.5 -91t-474.5 -35q-258 0 -414.5 103.5t-156.5 301.5q0 218 215 460q-57 -186 -57 -242q0 -167 151.5 -243t359.5 -80q243 0 506.5 35t263.5 44q0 139 -193 311l190 229q87 -54 137.5 -170.5t50.5 -305.5h64v-317zM862 -282l127 156
l193 -164l-136 -161l176 -149l-141 -166l-185 153l-127 -153l-190 161l135 161l-175 149l140 167zM902 -592l122 150l-168 139l-123 -148z" />
    <glyph glyph-name="u0680.initial.glyphFB5C" unicode="&#x680;" horiz-adv-x="908" arabic-form="initial" 
d="M909 336q0 -236 -65 -236h-844v317h650q22 0 22 37q0 27 -68.5 149.5t-87.5 122.5l170 264q82 -68 158 -298q65 -230 65 -356zM436 -156l127 156l193 -164l-136 -161l176 -149l-141 -166l-185 153l-127 -153l-190 161l135 161l-175 149l140 167zM476 -466l122 150
l-168 139l-123 -148z" />
    <glyph glyph-name="u0680.medial.glyphFB5D" unicode="&#x680;" horiz-adv-x="914" arabic-form="medial" 
d="M974 100h-974v317h656q22 0 22 37q0 27 -57 133.5t-103 144.5l178 257q91 -102 145.5 -292.5t54.5 -279.5h78v-317zM469 -156l127 156l193 -164l-136 -161l176 -149l-141 -166l-185 153l-127 -153l-190 161l135 161l-175 149l140 167zM509 -466l122 150l-168 139
l-123 -148z" />
    <glyph glyph-name="u067a.isolated.glyphFB5E" unicode="&#x67a;" horiz-adv-x="1676" arabic-form="isolated" 
d="M1654 335q0 -216 -19 -220q-27 -21 -115 -38.5t-196 -36.5q-365 -53 -463.5 -58t-238.5 -5q-586 0 -586 402q0 152 87 283q28 61 133 164q-61 -166 -61 -222q0 -215 225 -286q58 -15 111.5 -25.5t176.5 -12.5q70 0 151.5 4.5t368.5 27.5q247 18 247 53q0 110 -194 297
l196 231q177 -116 177 -558zM836 1216l-156 127l164 193l166 -141l-153 -185l153 -127l-161 -190l-167 140z" />
    <glyph glyph-name="u067a.final.glyphFB5F" unicode="&#x67a;" horiz-adv-x="1664" arabic-form="final" 
d="M1724 100h-112q-214 -56 -530.5 -91t-474.5 -35q-258 0 -414.5 103.5t-156.5 301.5q0 218 215 460q-57 -186 -57 -242q0 -167 151.5 -243t359.5 -80q243 0 506.5 35t263.5 44q0 139 -193 311l190 229q87 -54 137.5 -170.5t50.5 -305.5h64v-317zM871 1216l-156 127
l164 193l166 -141l-153 -185l153 -127l-161 -190l-167 140z" />
    <glyph glyph-name="u067a.initial.glyphFB60" unicode="&#x67a;" horiz-adv-x="908" arabic-form="initial" 
d="M909 336q0 -236 -65 -236h-844v317h650q22 0 22 37q0 27 -68.5 149.5t-87.5 122.5l170 264q82 -68 158 -298q65 -230 65 -356zM445 1313l-156 127l164 193l166 -141l-153 -185l153 -127l-161 -190l-167 140z" />
    <glyph glyph-name="u067a.medial.glyphFB61" unicode="&#x67a;" horiz-adv-x="914" arabic-form="medial" 
d="M974 100h-974v317h656q22 0 22 37q0 27 -57 133.5t-103 144.5l178 257q91 -102 145.5 -292.5t54.5 -279.5h78v-317zM478 1312l-156 127l164 193l166 -141l-153 -185l153 -127l-161 -190l-167 140z" />
    <glyph glyph-name="u067f.isolated.glyphFB62" unicode="&#x67f;" horiz-adv-x="1676" arabic-form="isolated" 
d="M1654 335q0 -216 -19 -220q-27 -21 -115 -38.5t-196 -36.5q-365 -53 -463.5 -58t-238.5 -5q-586 0 -586 402q0 152 87 283q28 61 133 164q-61 -166 -61 -222q0 -215 225 -286q58 -15 111.5 -25.5t176.5 -12.5q70 0 151.5 4.5t368.5 27.5q247 18 247 53q0 110 -194 297
l196 231q177 -116 177 -558zM827 1277l127 156l193 -164l-136 -161l176 -149l-141 -166l-185 153l-127 -153l-190 161l135 161l-175 149l140 167zM867 967l122 150l-168 139l-123 -148z" />
    <glyph glyph-name="u067f.final.glyphFB63" unicode="&#x67f;" horiz-adv-x="1664" arabic-form="final" 
d="M1724 100h-112q-214 -56 -530.5 -91t-474.5 -35q-258 0 -414.5 103.5t-156.5 301.5q0 218 215 460q-57 -186 -57 -242q0 -167 151.5 -243t359.5 -80q243 0 506.5 35t263.5 44q0 139 -193 311l190 229q87 -54 137.5 -170.5t50.5 -305.5h64v-317zM862 1377l127 156
l193 -164l-136 -161l176 -149l-141 -166l-185 153l-127 -153l-190 161l135 161l-175 149l140 167zM902 1067l122 150l-168 139l-123 -148z" />
    <glyph glyph-name="u067f.initial.glyphFB64" unicode="&#x67f;" horiz-adv-x="908" arabic-form="initial" 
d="M909 336q0 -236 -65 -236h-844v317h650q22 0 22 37q0 27 -68.5 149.5t-87.5 122.5l170 264q82 -68 158 -298q65 -230 65 -356zM336 1474l127 156l193 -164l-136 -161l176 -149l-141 -166l-185 153l-127 -153l-190 161l135 161l-175 149l140 167zM376 1164l122 150
l-168 139l-123 -148z" />
    <glyph glyph-name="u067f.medial.glyphFB65" unicode="&#x67f;" horiz-adv-x="914" arabic-form="medial" 
d="M974 100h-974v317h656q22 0 22 37q0 27 -57 133.5t-103 144.5l178 257q91 -102 145.5 -292.5t54.5 -279.5h78v-317zM369 1473l127 156l193 -164l-136 -161l176 -149l-141 -166l-185 153l-127 -153l-190 161l135 161l-175 149l140 167zM409 1163l122 150l-168 139
l-123 -148z" />
    <glyph glyph-name="u0679.isolated.glyphFB66" unicode="&#x679;" horiz-adv-x="1676" arabic-form="isolated" 
d="M1654 335q0 -216 -19 -220q-27 -21 -115 -38.5t-196 -36.5q-365 -53 -463.5 -58t-238.5 -5q-586 0 -586 402q0 152 87 283q28 61 133 164q-61 -166 -61 -222q0 -215 225 -286q58 -15 111.5 -25.5t176.5 -12.5q70 0 151.5 4.5t368.5 27.5q247 18 247 53q0 110 -194 297
l196 231q177 -116 177 -558zM1110 938q-21 -45 -42 -45h-506l-28 123q30 -6 52 -6q54 0 94 8v284l-16 80l83 66l6 -79l36 -37l-31 -62l-8 -217q170 156 247 156q100 -2 130 -57t0 -173zM1089 1022q0 43 -39 65t-91 22q-31 0 -102.5 -43t-77.5 -53q47 -4 63 -6t39 -2
q208 0 208 17z" />
    <glyph glyph-name="u0679.final.glyphFB67" unicode="&#x679;" horiz-adv-x="1664" arabic-form="final" 
d="M1724 100h-112q-214 -56 -530.5 -91t-474.5 -35q-258 0 -414.5 103.5t-156.5 301.5q0 218 215 460q-57 -186 -57 -242q0 -167 151.5 -243t359.5 -80q243 0 506.5 35t263.5 44q0 139 -193 311l190 229q87 -54 137.5 -170.5t50.5 -305.5h64v-317zM1145 938q-21 -45 -42 -45
h-506l-28 123q30 -6 52 -6q54 0 94 8v284l-16 80l83 66l6 -79l36 -37l-31 -62l-8 -217q170 156 247 156q100 -2 130 -57t0 -173zM1124 1022q0 43 -39 65t-91 22q-31 0 -102.5 -43t-77.5 -53q47 -4 63 -6t39 -2q208 0 208 17z" />
    <glyph glyph-name="u0679.initial.glyphFB68" unicode="&#x679;" horiz-adv-x="908" arabic-form="initial" 
d="M909 336q0 -236 -65 -236h-844v317h650q22 0 22 37q0 27 -68.5 149.5t-87.5 122.5l170 264q82 -68 158 -298q65 -230 65 -356zM719 1175q-21 -45 -42 -45h-506l-28 123q30 -6 52 -6q54 0 94 8v284l-16 80l83 66l6 -79l36 -37l-31 -62l-8 -217q170 156 247 156
q100 -2 130 -57t0 -173zM698 1259q0 43 -39 65t-91 22q-31 0 -102.5 -43t-77.5 -53q47 -4 63 -6t39 -2q208 0 208 17z" />
    <glyph glyph-name="u0679.medial.glyphFB69" unicode="&#x679;" horiz-adv-x="914" arabic-form="medial" 
d="M974 100h-974v317h656q22 0 22 37q0 27 -57 133.5t-103 144.5l178 257q91 -102 145.5 -292.5t54.5 -279.5h78v-317zM752 1174q-21 -45 -42 -45h-506l-28 123q30 -6 52 -6q54 0 94 8v284l-16 80l83 66l6 -79l36 -37l-31 -62l-8 -217q170 156 247 156q100 -2 130 -57
t0 -173zM731 1258q0 43 -39 65t-91 22q-31 0 -102.5 -43t-77.5 -53q47 -4 63 -6t39 -2q208 0 208 17z" />
    <glyph glyph-name="u06a4.isolated.glyphFB6A" unicode="&#x6a4;" horiz-adv-x="1917" arabic-form="isolated" 
d="M1891 578q-16 -471 -147 -483q-133 -19 -444 -31t-555 -12q-567 0 -651 130q-60 107 -60 285q0 153 33 263q26 65 77 131q-6 -139 10 -191q18 -107 56 -165q107 -168 601 -170q121 0 535 11q248 12 262 28l-276 166q-141 62 -141 162q0 98 156 311q131 185 224 185
q117 0 245 -238q36 -75 55.5 -184t19.5 -198zM1732 627q0 63 -72 222q-81 138 -136 138q-13 0 -37.5 -9.5t-69.5 -36.5t-63 -57t-22 -47l397 -223q3 4 3 13zM1171 1336l101 161l232 -141l-99 -158zM1504 1356l99 157l226 -133l-99 -161zM1559 1669l-91 -159l-214 125l97 156
z" />
    <glyph glyph-name="u06a4.final.glyphFB6B" unicode="&#x6a4;" horiz-adv-x="1892" arabic-form="final" 
d="M1891 578q-3 -89 -10 -161h71v-317h-153l-17 10q-18 -13 -38 -15q-133 -19 -444 -31t-555 -12q-567 0 -651 130q-60 107 -60 285q0 153 33 263q26 65 77 131q-6 -139 10 -191q18 -107 56 -165q107 -168 601 -170q121 0 535 11q248 12 262 28l-276 166q-141 62 -141 162
q0 98 156 311q131 185 224 185q117 0 245 -238q36 -75 55.5 -184t19.5 -198zM1732 627q0 63 -72 222q-81 138 -136 138q-13 0 -37.5 -9.5t-69.5 -36.5t-63 -57t-22 -47l397 -223q3 4 3 13zM1156 1334l101 161l232 -141l-99 -158zM1489 1354l99 157l226 -133l-99 -161z
M1544 1667l-91 -159l-214 125l97 156z" />
    <glyph glyph-name="u06a4.initial.glyphFB6C" unicode="&#x6a4;" horiz-adv-x="906" arabic-form="initial" 
d="M905 578q-1 -437 -99 -459q-133 -19 -290 -19h-516v317h617l-265 123q-141 62 -141 162q0 98 156 311q131 185 224 185q117 0 245 -238q36 -75 52.5 -184t16.5 -198zM752 627q0 63 -72 222q-81 138 -136 138q-13 0 -37.5 -9.5t-69.5 -36.5t-63 -57t-22 -47l397 -223
q3 4 3 13zM205 1336l101 161l232 -141l-99 -158zM538 1356l99 157l226 -133l-99 -161zM593 1669l-91 -159l-214 125l97 156z" />
    <glyph glyph-name="u06a4.medial.glyphFB6D" unicode="&#x6a4;" horiz-adv-x="918" arabic-form="medial" 
d="M905 578q0 -89 -5 -161h78v-317h-81l-73 27q-8 -6 -18 -8q-133 -19 -290 -19h-516v317h617l-265 123q-141 62 -141 162q0 98 156 311q131 185 224 185q117 0 245 -238q36 -75 52.5 -184t16.5 -198zM752 627q0 63 -72 222q-81 138 -136 138q-13 0 -37.5 -9.5t-69.5 -36.5
t-63 -57t-22 -47l397 -223q3 4 3 13zM187 1338l101 161l232 -141l-99 -158zM520 1358l99 157l226 -133l-99 -161zM575 1671l-91 -159l-214 125l97 156z" />
    <glyph glyph-name="u06a6.isolated.glyphFB6E" unicode="&#x6a6;" horiz-adv-x="1917" arabic-form="isolated" 
d="M1891 578q-16 -471 -147 -483q-133 -19 -444 -31t-555 -12q-567 0 -651 130q-60 107 -60 285q0 153 33 263q26 65 77 131q-6 -139 10 -191q18 -107 56 -165q107 -168 601 -170q121 0 535 11q248 12 262 28l-276 166q-141 62 -141 162q0 98 156 311q131 185 224 185
q117 0 245 -238q36 -75 55.5 -184t19.5 -198zM1732 627q0 63 -72 222q-81 138 -136 138q-13 0 -37.5 -9.5t-69.5 -36.5t-63 -57t-22 -47l397 -223q3 4 3 13zM1515 1682l127 156l193 -164l-136 -161l176 -149l-141 -166l-185 153l-127 -153l-190 161l135 161l-175 149
l140 167zM1555 1372l122 150l-168 139l-123 -148z" />
    <glyph glyph-name="u06a6.final.glyphFB6F" unicode="&#x6a6;" horiz-adv-x="1892" arabic-form="final" 
d="M1891 578q-3 -89 -10 -161h71v-317h-153l-17 10q-18 -13 -38 -15q-133 -19 -444 -31t-555 -12q-567 0 -651 130q-60 107 -60 285q0 153 33 263q26 65 77 131q-6 -139 10 -191q18 -107 56 -165q107 -168 601 -170q121 0 535 11q248 12 262 28l-276 166q-141 62 -141 162
q0 98 156 311q131 185 224 185q117 0 245 -238q36 -75 55.5 -184t19.5 -198zM1732 627q0 63 -72 222q-81 138 -136 138q-13 0 -37.5 -9.5t-69.5 -36.5t-63 -57t-22 -47l397 -223q3 4 3 13zM1507 1682l127 156l193 -164l-136 -161l176 -149l-141 -166l-185 153l-127 -153
l-190 161l135 161l-175 149l140 167zM1547 1372l122 150l-168 139l-123 -148z" />
    <glyph glyph-name="u06a6.initial.glyphFB70" unicode="&#x6a6;" horiz-adv-x="906" arabic-form="initial" 
d="M905 578q-1 -437 -99 -459q-133 -19 -290 -19h-516v317h617l-265 123q-141 62 -141 162q0 98 156 311q131 185 224 185q117 0 245 -238q36 -75 52.5 -184t16.5 -198zM752 627q0 63 -72 222q-81 138 -136 138q-13 0 -37.5 -9.5t-69.5 -36.5t-63 -57t-22 -47l397 -223
q3 4 3 13zM534 1682l127 156l193 -164l-136 -161l176 -149l-141 -166l-185 153l-127 -153l-190 161l135 161l-175 149l140 167zM574 1372l122 150l-168 139l-123 -148z" />
    <glyph glyph-name="u06a6.medial.glyphFB71" unicode="&#x6a6;" horiz-adv-x="918" arabic-form="medial" 
d="M905 578q0 -89 -5 -161h78v-317h-81l-73 27q-8 -6 -18 -8q-133 -19 -290 -19h-516v317h617l-265 123q-141 62 -141 162q0 98 156 311q131 185 224 185q117 0 245 -238q36 -75 52.5 -184t16.5 -198zM752 627q0 63 -72 222q-81 138 -136 138q-13 0 -37.5 -9.5t-69.5 -36.5
t-63 -57t-22 -47l397 -223q3 4 3 13zM541 1682l127 156l193 -164l-136 -161l176 -149l-141 -166l-185 153l-127 -153l-190 161l135 161l-175 149l140 167zM581 1372l122 150l-168 139l-123 -148z" />
    <glyph glyph-name="u0684.isolated.glyphFB72" unicode="&#x684;" horiz-adv-x="1518" arabic-form="isolated" 
d="M1482 -433q-61 -92 -247 -226q-132 -93 -230.5 -137t-279.5 -44q-353 0 -480 210q-130 208 -128 466q0 318 232 621q73 100 91 121t38 49q-38 16 -93 16q-21 0 -67.5 -4.5t-84.5 -15.5t-69 -25q-27 -11 -126 -109q4 105 44 161q25 53 88 144.5t91 110.5t61.5 26t78.5 7
q26 0 78.5 -5.5t150 -19t243 -27t171.5 -13.5q161 0 315 15l-170 -330q-11 2 -27 3.5t-40 2.5q-168 7 -315.5 -17t-270 -130t-197.5 -237.5t-75 -285.5q0 -428 655 -428q205 0 563 101zM751 51l-156 127l164 193l166 -141l-153 -185l153 -127l-161 -190l-167 140z" />
    <glyph glyph-name="u0684.final.glyphFB73" unicode="&#x684;" horiz-adv-x="1464" arabic-form="final" 
d="M1524 100h-412q-298 0 -298 226q4 259 10 276q-326 -46 -472 -250.5t-146 -430.5q0 -161 138 -304.5t485 -143.5q197 7 418.5 56t234.5 59q-58 -98 -353 -285q-168 -125 -398 -125q-333 0 -492 192.5t-159 451.5q0 388 336 816q-33 19 -72 19q-173 0 -338 -129
q109 222 138 258q84 150 298 150q93 0 242.5 -34.5t272.5 -34.5q90 0 322 26l-82 -244l-279 -32l-2 -31q0 -108 37 -138.5t127 -30.5l444 1v-318zM586 -41l-156 127l164 193l166 -141l-153 -185l153 -127l-161 -190l-167 140z" />
    <glyph glyph-name="u0684.initial.glyphFB74" unicode="&#x684;" horiz-adv-x="1666" arabic-form="initial" 
d="M1669 100h-1669v317l1136 -2q0 12 -87.5 95t-188.5 152q-107 74 -229 74q-95 0 -293 -71q82 142 116 175q88 102 293 102q215 0 478 -238q101 -95 198 -167.5t246 -114.5v-322zM825 -320l-156 127l164 193l166 -141l-153 -185l153 -127l-161 -190l-167 140z" />
    <glyph glyph-name="u0684.medial.glyphFB75" unicode="&#x684;" horiz-adv-x="1665" arabic-form="medial" 
d="M1725 100h-1725v317l1136 -2q0 12 -87.5 95t-188.5 152q-107 74 -229 74q-95 0 -293 -71q82 142 116 175q88 102 293 102q215 0 478 -238q101 -95 198 -167.5t241 -119.5h61v-317zM853 -320l-156 127l164 193l166 -141l-153 -185l153 -127l-161 -190l-167 140z" />
    <glyph glyph-name="u0683.isolated.glyphFB76" unicode="&#x683;" horiz-adv-x="1518" arabic-form="isolated" 
d="M1482 -433q-61 -92 -247 -226q-132 -93 -230.5 -137t-279.5 -44q-353 0 -480 210q-130 208 -128 466q0 318 232 621q73 100 91 121t38 49q-38 16 -93 16q-21 0 -67.5 -4.5t-84.5 -15.5t-69 -25q-27 -11 -126 -109q4 105 44 161q25 53 88 144.5t91 110.5t61.5 26t78.5 7
q26 0 78.5 -5.5t150 -19t243 -27t171.5 -13.5q161 0 315 15l-170 -330q-11 2 -27 3.5t-40 2.5q-168 7 -315.5 -17t-270 -130t-197.5 -237.5t-75 -285.5q0 -428 655 -428q205 0 563 101zM762 58l127 156l193 -164l-141 -166l-185 153l-127 -153l-190 161l140 167z" />
    <glyph glyph-name="u0683.final.glyphFB77" unicode="&#x683;" horiz-adv-x="1464" arabic-form="final" 
d="M1524 100h-412q-298 0 -298 226q4 259 10 276q-326 -46 -472 -250.5t-146 -430.5q0 -161 138 -304.5t485 -143.5q197 7 418.5 56t234.5 59q-58 -98 -353 -285q-168 -125 -398 -125q-333 0 -492 192.5t-159 451.5q0 388 336 816q-33 19 -72 19q-173 0 -338 -129
q109 222 138 258q84 150 298 150q93 0 242.5 -34.5t272.5 -34.5q90 0 322 26l-82 -244l-279 -32l-2 -31q0 -108 37 -138.5t127 -30.5l444 1v-318zM767 -134l127 156l193 -164l-141 -166l-185 153l-127 -153l-190 161l140 167z" />
    <glyph glyph-name="u0683.initial.glyphFB78" unicode="&#x683;" horiz-adv-x="1666" arabic-form="initial" 
d="M1669 100h-1669v317l1136 -2q0 12 -87.5 95t-188.5 152q-107 74 -229 74q-95 0 -293 -71q82 142 116 175q88 102 293 102q215 0 478 -238q101 -95 198 -167.5t246 -114.5v-322zM836 -256l127 156l193 -164l-141 -166l-185 153l-127 -153l-190 161l140 167z" />
    <glyph glyph-name="u0683.medial.glyphFB79" unicode="&#x683;" horiz-adv-x="1665" arabic-form="medial" 
d="M1725 100h-1725v317l1136 -2q0 12 -87.5 95t-188.5 152q-107 74 -229 74q-95 0 -293 -71q82 142 116 175q88 102 293 102q215 0 478 -238q101 -95 198 -167.5t241 -119.5h61v-317zM864 -256l127 156l193 -164l-141 -166l-185 153l-127 -153l-190 161l140 167z" />
    <glyph glyph-name="u0686.isolated.glyphFB7A" unicode="&#x686;" horiz-adv-x="1518" arabic-form="isolated" 
d="M1482 -433q-61 -92 -247 -226q-132 -93 -230.5 -137t-279.5 -44q-353 0 -480 210q-130 208 -128 466q0 318 232 621q73 100 91 121t38 49q-38 16 -93 16q-21 0 -67.5 -4.5t-84.5 -15.5t-69 -25q-27 -11 -126 -109q4 105 44 161q25 53 88 144.5t91 110.5t61.5 26t78.5 7
q26 0 78.5 -5.5t150 -19t243 -27t171.5 -13.5q161 0 315 15l-170 -330q-11 2 -27 3.5t-40 2.5q-168 7 -315.5 -17t-270 -130t-197.5 -237.5t-75 -285.5q0 -428 655 -428q205 0 563 101zM1089 108l-101 -161l-232 141l99 158zM756 88l-99 -157l-226 133l99 161zM701 -225
l91 159l214 -125l-97 -156z" />
    <glyph glyph-name="u0686.final.glyphFB7B" unicode="&#x686;" horiz-adv-x="1464" arabic-form="final" 
d="M1524 100h-412q-298 0 -298 226q4 259 10 276q-326 -46 -472 -250.5t-146 -430.5q0 -161 138 -304.5t485 -143.5q197 7 418.5 56t234.5 59q-58 -98 -353 -285q-168 -125 -398 -125q-333 0 -492 192.5t-159 451.5q0 388 336 816q-33 19 -72 19q-173 0 -338 -129
q109 222 138 258q84 150 298 150q93 0 242.5 -34.5t272.5 -34.5q90 0 322 26l-82 -244l-279 -32l-2 -31q0 -108 37 -138.5t127 -30.5l444 1v-318zM914 16l-101 -161l-232 141l99 158zM581 -4l-99 -157l-226 133l99 161zM526 -317l91 159l214 -125l-97 -156z" />
    <glyph glyph-name="u0686.initial.glyphFB7C" unicode="&#x686;" horiz-adv-x="1666" arabic-form="initial" 
d="M1669 100h-1669v317l1136 -2q0 12 -87.5 95t-188.5 152q-107 74 -229 74q-95 0 -293 -71q82 142 116 175q88 102 293 102q215 0 478 -238q101 -95 198 -167.5t246 -114.5v-322zM1163 -138l-101 -161l-232 141l99 158zM830 -158l-99 -157l-226 133l99 161zM775 -471
l91 159l214 -125l-97 -156z" />
    <glyph glyph-name="u0686.medial.glyphFB7D" unicode="&#x686;" horiz-adv-x="1665" arabic-form="medial" 
d="M1725 100h-1725v317l1136 -2q0 12 -87.5 95t-188.5 152q-107 74 -229 74q-95 0 -293 -71q82 142 116 175q88 102 293 102q215 0 478 -238q101 -95 198 -167.5t241 -119.5h61v-317zM1191 -138l-101 -161l-232 141l99 158zM858 -158l-99 -157l-226 133l99 161zM803 -471
l91 159l214 -125l-97 -156z" />
    <glyph glyph-name="u0687.isolated.glyphFB7E" unicode="&#x687;" horiz-adv-x="1518" arabic-form="isolated" 
d="M1482 -433q-61 -92 -247 -226q-132 -93 -230.5 -137t-279.5 -44q-353 0 -480 210q-130 208 -128 466q0 318 232 621q73 100 91 121t38 49q-38 16 -93 16q-21 0 -67.5 -4.5t-84.5 -15.5t-69 -25q-27 -11 -126 -109q4 105 44 161q25 53 88 144.5t91 110.5t61.5 26t78.5 7
q26 0 78.5 -5.5t150 -19t243 -27t171.5 -13.5q161 0 315 15l-170 -330q-11 2 -27 3.5t-40 2.5q-168 7 -315.5 -17t-270 -130t-197.5 -237.5t-75 -285.5q0 -428 655 -428q205 0 563 101zM792 113l127 156l193 -164l-136 -161l176 -149l-141 -166l-185 153l-127 -153l-190 161
l135 161l-175 149l140 167zM832 -197l122 150l-168 139l-123 -148z" />
    <glyph glyph-name="u0687.final.glyphFB7F" unicode="&#x687;" horiz-adv-x="1464" arabic-form="final" 
d="M596 26l107 131l162 -138l-114 -136l148 -125l-119 -140l-155 129l-107 -129l-160 136l113 135l-147 126l118 140zM630 -235l102 126l-141 117l-104 -125zM1524 100h-412q-298 0 -298 226q4 259 10 276q-326 -46 -472 -250.5t-146 -430.5q0 -161 138 -304.5t485 -143.5
q197 7 418.5 56t234.5 59q-58 -98 -353 -285q-168 -125 -398 -125q-333 0 -492 192.5t-159 451.5q0 388 336 816q-33 19 -72 19q-173 0 -338 -129q109 222 138 258q84 150 298 150q93 0 242.5 -34.5t272.5 -34.5q90 0 322 26l-82 -244l-279 -32l-2 -31q0 -108 37 -138.5
t127 -30.5l444 1v-318z" />
    <glyph glyph-name="u0687.initial.glyphFB80" unicode="&#x687;" horiz-adv-x="1666" arabic-form="initial" 
d="M1669 100h-1669v317l1136 -2q0 12 -87.5 95t-188.5 152q-107 74 -229 74q-95 0 -293 -71q82 142 116 175q88 102 293 102q215 0 478 -238q101 -95 198 -167.5t246 -114.5v-322zM816 -156l127 156l193 -164l-136 -161l176 -149l-141 -166l-185 153l-127 -153l-190 161
l135 161l-175 149l140 167zM856 -466l122 150l-168 139l-123 -148z" />
    <glyph glyph-name="u0687.medial.glyphFB81" unicode="&#x687;" horiz-adv-x="1665" arabic-form="medial" 
d="M1725 100h-1725v317l1136 -2q0 12 -87.5 95t-188.5 152q-107 74 -229 74q-95 0 -293 -71q82 142 116 175q88 102 293 102q215 0 478 -238q101 -95 198 -167.5t241 -119.5h61v-317zM844 -156l127 156l193 -164l-136 -161l176 -149l-141 -166l-185 153l-127 -153l-190 161
l135 161l-175 149l140 167zM884 -466l122 150l-168 139l-123 -148z" />
    <glyph glyph-name="u068d.isolated.glyphFB82" unicode="&#x68d;" horiz-adv-x="970" arabic-form="isolated" 
d="M965 214q0 -24 -5 -65.5t-30.5 -49.5t-111.5 -28l-171 -39q-142 -32 -256 -32q-119 3 -182 60q-55 33 -53 169q0 17 1 54.5t15 119t24 109t21 27.5q2 0 4 -1l7 -74q3 -107 55 -133q71 -30 142 -30q41 0 89 3.5t125 21.5q153 31 153 48q0 50 -68 241q-60 143 -134 221
l137 256q87 -97 156 -300q82 -240 82 -578zM561 -256l127 156l193 -164l-141 -166l-185 153l-127 -153l-190 161l140 167z" />
    <glyph glyph-name="u068d.final.glyphFB83" unicode="&#x68d;" horiz-adv-x="975" arabic-form="final" 
d="M929 99q-25 -8 -111 -28l-171 -39q-142 -32 -256 -32q-119 3 -182 60q-55 33 -53 169q0 17 1 54.5t15 119t24 109t21 27.5q2 0 4 -1l7 -74q3 -107 55 -133q71 -30 142 -30q41 0 89 3.5t125 21.5q153 31 153 48q0 50 -68 241q-60 143 -134 221l137 256q87 -97 156 -300
q56 -165 74 -375h78v-317h-103q-2 -1 -3 -1zM596 -256l127 156l193 -164l-141 -166l-185 153l-127 -153l-190 161l140 167z" />
    <glyph glyph-name="u068c.isolated.glyphFB84" unicode="&#x68c;" horiz-adv-x="970" arabic-form="isolated" 
d="M965 214q0 -24 -5 -65.5t-30.5 -49.5t-111.5 -28l-171 -39q-142 -32 -256 -32q-119 3 -182 60q-55 33 -53 169q0 17 1 54.5t15 119t24 109t21 27.5q2 0 4 -1l7 -74q3 -107 55 -133q71 -30 142 -30q41 0 89 3.5t125 21.5q153 31 153 48q0 50 -68 241q-60 143 -134 221
l137 256q87 -97 156 -300q82 -240 82 -578zM561 1466l127 156l193 -164l-141 -166l-185 153l-127 -153l-190 161l140 167z" />
    <glyph glyph-name="u068c.final.glyphFB85" unicode="&#x68c;" horiz-adv-x="975" arabic-form="final" 
d="M929 99q-25 -8 -111 -28l-171 -39q-142 -32 -256 -32q-119 3 -182 60q-55 33 -53 169q0 17 1 54.5t15 119t24 109t21 27.5q2 0 4 -1l7 -74q3 -107 55 -133q71 -30 142 -30q41 0 89 3.5t125 21.5q153 31 153 48q0 50 -68 241q-60 143 -134 221l137 256q87 -97 156 -300
q56 -165 74 -375h78v-317h-103q-2 -1 -3 -1zM596 1466l127 156l193 -164l-141 -166l-185 153l-127 -153l-190 161l140 167z" />
    <glyph glyph-name="u068e.isolated.glyphFB86" unicode="&#x68e;" horiz-adv-x="970" arabic-form="isolated" 
d="M965 214q0 -24 -5 -65.5t-30.5 -49.5t-111.5 -28l-171 -39q-142 -32 -256 -32q-119 3 -182 60q-55 33 -53 169q0 17 1 54.5t15 119t24 109t21 27.5q2 0 4 -1l7 -74q3 -107 55 -133q71 -30 142 -30q41 0 89 3.5t125 21.5q153 31 153 48q0 50 -68 241q-60 143 -134 221
l137 256q87 -97 156 -300q82 -240 82 -578zM330 1230l101 161l232 -141l-99 -158zM663 1250l99 157l226 -133l-99 -161zM718 1563l-91 -159l-214 125l97 156z" />
    <glyph glyph-name="u068e.final.glyphFB87" unicode="&#x68e;" horiz-adv-x="975" arabic-form="final" 
d="M929 99q-25 -8 -111 -28l-171 -39q-142 -32 -256 -32q-119 3 -182 60q-55 33 -53 169q0 17 1 54.5t15 119t24 109t21 27.5q2 0 4 -1l7 -74q3 -107 55 -133q71 -30 142 -30q41 0 89 3.5t125 21.5q153 31 153 48q0 50 -68 241q-60 143 -134 221l137 256q87 -97 156 -300
q56 -165 74 -375h78v-317h-103q-2 -1 -3 -1zM334 1230l101 161l232 -141l-99 -158zM667 1250l99 157l226 -133l-99 -161zM722 1563l-91 -159l-214 125l97 156z" />
    <glyph glyph-name="u0688.isolated.glyphFB88" unicode="&#x688;" horiz-adv-x="970" arabic-form="isolated" 
d="M965 214q0 -24 -5 -65.5t-30.5 -49.5t-111.5 -28l-171 -39q-142 -32 -256 -32q-119 3 -182 60q-55 33 -53 169q0 17 1 54.5t15 119t24 109t21 27.5q2 0 4 -1l7 -74q3 -107 55 -133q71 -30 142 -30q41 0 89 3.5t125 21.5q153 31 153 48q0 50 -68 241q-60 143 -134 221
l137 256q87 -97 156 -300q82 -240 82 -578zM824 1237q-21 -45 -42 -45h-506l-28 123q30 -6 52 -6q54 0 94 8v284l-16 80l83 66l6 -79l36 -37l-31 -62l-8 -217q170 156 247 156q100 -2 130 -57t0 -173zM803 1321q0 43 -39 65t-91 22q-31 0 -102.5 -43t-77.5 -53q47 -4 63 -6
t39 -2q208 0 208 17z" />
    <glyph glyph-name="u0688.final.glyphFB89" unicode="&#x688;" horiz-adv-x="975" arabic-form="final" 
d="M929 99q-25 -8 -111 -28l-171 -39q-142 -32 -256 -32q-119 3 -182 60q-55 33 -53 169q0 17 1 54.5t15 119t24 109t21 27.5q2 0 4 -1l7 -74q3 -107 55 -133q71 -30 142 -30q41 0 89 3.5t125 21.5q153 31 153 48q0 50 -68 241q-60 143 -134 221l137 256q87 -97 156 -300
q56 -165 74 -375h78v-317h-103q-2 -1 -3 -1zM859 1237q-21 -45 -42 -45h-506l-28 123q30 -6 52 -6q54 0 94 8v284l-16 80l83 66l6 -79l36 -37l-31 -62l-8 -217q170 156 247 156q100 -2 130 -57t0 -173zM838 1321q0 43 -39 65t-91 22q-31 0 -102.5 -43t-77.5 -53q47 -4 63 -6
t39 -2q208 0 208 17z" />
    <glyph glyph-name="u0698.isolated.glyphFB8A" unicode="&#x698;" horiz-adv-x="955" arabic-form="isolated" 
d="M954 301q0 -326 -149 -540q-202 -286 -401 -286q-150 0 -295.5 147.5t-197.5 299.5l54 -33q55 -30 97.5 -51t82.5 -34t82.5 -18.5t97.5 -4.5q200 10 344.5 191t144.5 236q-2 121 -243 333l136 288l110 -110t82.5 -115.5t44 -149.5t10.5 -153zM193 1167l101 161l232 -141
l-99 -158zM526 1187l99 157l226 -133l-99 -161zM581 1500l-91 -159l-214 125l97 156z" />
    <glyph glyph-name="u0698.final.glyphFB8B" unicode="&#x698;" horiz-adv-x="959" arabic-form="final" 
d="M805 -249q-202 -276 -401 -276q-150 0 -295.5 147.5t-197.5 299.5l54 -33q55 -30 155 -69.5t205 -38.5q200 10 344.5 141t144.5 186q-2 121 -243 333l136 288l110 -110t82 -116q21 -40 33 -86h87v-317h-69q-20 -159 -145 -349zM186 1167l101 161l232 -141l-99 -158z
M519 1187l99 157l226 -133l-99 -161zM574 1500l-91 -159l-214 125l97 156z" />
    <glyph glyph-name="u0691.isolated.glyphFB8C" unicode="&#x691;" horiz-adv-x="955" arabic-form="isolated" 
d="M954 301q0 -326 -149 -540q-202 -286 -401 -286q-150 0 -295.5 147.5t-197.5 299.5l54 -33q55 -30 97.5 -51t82.5 -34t82.5 -18.5t97.5 -4.5q200 10 344.5 191t144.5 236q-2 121 -243 333l136 288l110 -110t82.5 -115.5t44 -149.5t10.5 -153zM747 1094q-21 -45 -42 -45
h-506l-28 123q30 -6 52 -6q54 0 94 8v284l-16 80l83 66l6 -79l36 -37l-31 -62l-8 -217q170 156 247 156q100 -2 130 -57t0 -173zM726 1178q0 43 -39 65t-91 22q-31 0 -102.5 -43t-77.5 -53q47 -4 63 -6t39 -2q208 0 208 17z" />
    <glyph glyph-name="u0691.final.glyphFB8D" unicode="&#x691;" horiz-adv-x="959" arabic-form="final" 
d="M805 -249q-202 -276 -401 -276q-150 0 -295.5 147.5t-197.5 299.5l54 -33q55 -30 155 -69.5t205 -38.5q200 10 344.5 141t144.5 186q-2 121 -243 333l136 288l110 -110t82 -116q21 -40 33 -86h87v-317h-69q-20 -159 -145 -349zM747 1094q-21 -45 -42 -45h-506l-28 123
q30 -6 52 -6q54 0 94 8v284l-16 80l83 66l6 -79l36 -37l-31 -62l-8 -217q170 156 247 156q100 -2 130 -57t0 -173zM726 1178q0 43 -39 65t-91 22q-31 0 -102.5 -43t-77.5 -53q47 -4 63 -6t39 -2q208 0 208 17z" />
    <glyph glyph-name="u06a9.isolated.glyphFB8E" unicode="&#x6a9;" horiz-adv-x="1573" arabic-form="isolated" 
d="M1537 1431l-52 -205l-602 -225q31 -18 59.5 -37.5l56.5 -39.5q112 -71 225 -155.5t270 -227.5q78 -67 69 -103q0 -27 -70 -322q-6 -16 -166 -16h-991q-61 0 -100 7t-108 65t-89 129t-20 117q0 54 21 119q57 128 74 128h3l1 -33q15 -59 69.5 -137.5t143.5 -78.5
q78 0 145.5 1t227.5 1l440 -9q158 0 166 17v2q0 34 -238 193q-232 163 -268 163l-37 -34l-81 72.5t-63 89.5q-8 51 22 113q44 79 892 406z" />
    <glyph glyph-name="u06a9.final.glyphFB8F" unicode="&#x6a9;" horiz-adv-x="1580" arabic-form="final" 
d="M1537 1431l-52 -205l-602 -225q31 -18 59.5 -37.5l56.5 -39.5q112 -71 225 -155.5t270 -227.5q78 -67 69 -103q0 -6 -3 -21h80v-317h-313h-991q-61 0 -100 7t-108 65t-89 129t-20 117q0 54 21 119q57 128 74 128h3l1 -33q15 -59 69.5 -137.5t143.5 -78.5q78 0 145.5 1
t227.5 1l440 -9q158 0 166 17v2q0 34 -238 193q-232 163 -268 163l-37 -34l-81 72.5t-63 89.5q-8 51 22 113q44 79 892 406z" />
    <glyph glyph-name="u06a9.initial.glyphFB90" unicode="&#x6a9;" horiz-adv-x="1034" arabic-form="initial" 
d="M1026 352q-15 -124 -51 -192q-44 -60 -94 -60h-881v317h627q140 0 140 19q0 33 -231 192q-222 156 -260 156q-6 -4 -37 -34q-21 18 -81 76q-59 47 -59 104q0 70 25 97q107 121 885 394l-50 -197l-596 -223l270 -178t400 -361q-2 -67 -7 -110z" />
    <glyph glyph-name="u06a9.medial.glyphFB91" unicode="&#x6a9;" horiz-adv-x="1042" arabic-form="medial" 
d="M0 100v317h627q140 0 140 19q0 33 -231 192q-222 156 -260 156q-6 -4 -37 -34q-21 18 -81 76q-59 47 -59 104q0 70 25 97q107 121 885 394l-50 -197l-596 -223l270 -178t400 -361q-1 -24 -2 -45h61v-317h-1092z" />
    <glyph glyph-name="u06af.isolated.glyphFB92" unicode="&#x6af;" horiz-adv-x="1573" arabic-form="isolated" 
d="M1537 1431l-52 -205l-602 -225q31 -18 59.5 -37.5l56.5 -39.5q112 -71 225 -155.5t270 -227.5q78 -67 69 -103q0 -27 -70 -322q-6 -16 -166 -16h-991q-61 0 -100 7t-108 65t-89 129t-20 117q0 54 21 119q57 128 74 128h3l1 -33q15 -59 69.5 -137.5t143.5 -78.5
q78 0 145.5 1t227.5 1l440 -9q158 0 166 17v2q0 34 -238 193q-232 163 -268 163l-37 -34l-81 72.5t-63 89.5q-8 51 22 113q44 79 892 406zM1406 1476l-728 -328l-26 52l733 328z" />
    <glyph glyph-name="u06af.final.glyphFB93" unicode="&#x6af;" horiz-adv-x="1580" arabic-form="final" 
d="M1537 1431l-52 -205l-602 -225q31 -18 59.5 -37.5l56.5 -39.5q112 -71 225 -155.5t270 -227.5q78 -67 69 -103q0 -6 -3 -21h80v-317h-313h-991q-61 0 -100 7t-108 65t-89 129t-20 117q0 54 21 119q57 128 74 128h3l1 -33q15 -59 69.5 -137.5t143.5 -78.5q78 0 145.5 1
t227.5 1l440 -9q158 0 166 17v2q0 34 -238 193q-232 163 -268 163l-37 -34l-81 72.5t-63 89.5q-8 51 22 113q44 79 892 406zM1475 1501l-728 -328l-26 52l733 328z" />
    <glyph glyph-name="u06af.initial.glyphFB94" unicode="&#x6af;" horiz-adv-x="1034" arabic-form="initial" 
d="M1026 352q-15 -124 -51 -192q-44 -60 -94 -60h-881v317h627q140 0 140 19q0 33 -231 192q-222 156 -260 156q-6 -4 -37 -34q-21 18 -81 76q-59 47 -59 104q0 70 25 97q107 121 885 394l-50 -197l-596 -223l270 -178t400 -361q-2 -67 -7 -110zM942 1491l-728 -328l-26 52
l733 328z" />
    <glyph glyph-name="u06af.medial.glyphFB95" unicode="&#x6af;" horiz-adv-x="1042" arabic-form="medial" 
d="M0 100v317h627q140 0 140 19q0 33 -231 192q-222 156 -260 156q-6 -4 -37 -34q-21 18 -81 76q-59 47 -59 104q0 70 25 97q107 121 885 394l-50 -197l-596 -223l270 -178t400 -361q-1 -24 -2 -45h61v-317h-1092zM939 1494l-728 -328l-26 52l733 328z" />
    <glyph glyph-name="u06b3.isolated.glyphFB96" unicode="&#x6b3;" horiz-adv-x="1573" arabic-form="isolated" 
d="M1537 1431l-52 -205l-602 -225q31 -18 59.5 -37.5l56.5 -39.5q112 -71 225 -155.5t270 -227.5q78 -67 69 -103q0 -27 -70 -322q-6 -16 -166 -16h-991q-61 0 -100 7t-108 65t-89 129t-20 117q0 54 21 119q57 128 74 128h3l1 -33q15 -59 69.5 -137.5t143.5 -78.5
q78 0 145.5 1t227.5 1l440 -9q158 0 166 17v2q0 34 -238 193q-232 163 -268 163l-37 -34l-81 72.5t-63 89.5q-8 51 22 113q44 79 892 406zM786 -320l-156 127l164 193l166 -141l-153 -185l153 -127l-161 -190l-167 140zM1395 1479l-728 -328l-26 52l733 328z" />
    <glyph glyph-name="u06b3.final.glyphFB97" unicode="&#x6b3;" horiz-adv-x="1580" arabic-form="final" 
d="M1537 1431l-52 -205l-602 -225q31 -18 59.5 -37.5l56.5 -39.5q112 -71 225 -155.5t270 -227.5q78 -67 69 -103q0 -6 -3 -21h80v-317h-313h-991q-61 0 -100 7t-108 65t-89 129t-20 117q0 54 21 119q57 128 74 128h3l1 -33q15 -59 69.5 -137.5t143.5 -78.5q78 0 145.5 1
t227.5 1l440 -9q158 0 166 17v2q0 34 -238 193q-232 163 -268 163l-37 -34l-81 72.5t-63 89.5q-8 51 22 113q44 79 892 406zM820 -320l-156 127l164 193l166 -141l-153 -185l153 -127l-161 -190l-167 140zM1368 1477l-728 -328l-26 52l733 328z" />
    <glyph glyph-name="u06b3.initial.glyphFB98" unicode="&#x6b3;" horiz-adv-x="1034" arabic-form="initial" 
d="M1026 352q-15 -124 -51 -192q-44 -60 -94 -60h-881v317h627q140 0 140 19q0 33 -231 192q-222 156 -260 156q-6 -4 -37 -34q-21 18 -81 76q-59 47 -59 104q0 70 25 97q107 121 885 394l-50 -197l-596 -223l270 -178t400 -361q-2 -67 -7 -110zM507 -320l-156 127l164 193
l166 -141l-153 -185l153 -127l-161 -190l-167 140zM893 1491l-728 -328l-26 52l733 328z" />
    <glyph glyph-name="u06b3.medial.glyphFB99" unicode="&#x6b3;" horiz-adv-x="1042" arabic-form="medial" 
d="M0 100v317h627q140 0 140 19q0 33 -231 192q-222 156 -260 156q-6 -4 -37 -34q-21 18 -81 76q-59 47 -59 104q0 70 25 97q107 121 885 394l-50 -197l-596 -223l270 -178t400 -361q-1 -24 -2 -45h61v-317h-1092zM537 -320l-156 127l164 193l166 -141l-153 -185l153 -127
l-161 -190l-167 140zM871 1491l-728 -328l-26 52l733 328z" />
    <glyph glyph-name="u06b1.isolated.glyphFB9A" unicode="&#x6b1;" horiz-adv-x="1573" arabic-form="isolated" 
d="M1537 1431l-52 -205l-602 -225q31 -18 59.5 -37.5l56.5 -39.5q112 -71 225 -155.5t270 -227.5q78 -67 69 -103q0 -27 -70 -322q-6 -16 -166 -16h-991q-61 0 -100 7t-108 65t-89 129t-20 117q0 54 21 119q57 128 74 128h3l1 -33q15 -59 69.5 -137.5t143.5 -78.5
q78 0 145.5 1t227.5 1l440 -9q158 0 166 17v2q0 34 -238 193q-232 163 -268 163l-37 -34l-81 72.5t-63 89.5q-8 51 22 113q44 79 892 406zM458 1454l127 156l193 -164l-141 -166l-185 153l-127 -153l-190 161l140 167zM1413 1482l-728 -328l-26 52l733 328z" />
    <glyph glyph-name="u06b1.final.glyphFB9B" unicode="&#x6b1;" horiz-adv-x="1580" arabic-form="final" 
d="M1537 1431l-52 -205l-602 -225q31 -18 59.5 -37.5l56.5 -39.5q112 -71 225 -155.5t270 -227.5q78 -67 69 -103q0 -6 -3 -21h80v-317h-313h-991q-61 0 -100 7t-108 65t-89 129t-20 117q0 54 21 119q57 128 74 128h3l1 -33q15 -59 69.5 -137.5t143.5 -78.5q78 0 145.5 1
t227.5 1l440 -9q158 0 166 17v2q0 34 -238 193q-232 163 -268 163l-37 -34l-81 72.5t-63 89.5q-8 51 22 113q44 79 892 406zM458 1454l127 156l193 -164l-141 -166l-185 153l-127 -153l-190 161l140 167zM1413 1482l-728 -328l-26 52l733 328z" />
    <glyph glyph-name="u06b1.initial.glyphFB9C" unicode="&#x6b1;" horiz-adv-x="1034" arabic-form="initial" 
d="M231 1494l88 108l134 -114l-98 -115l-128 106l-89 -106l-132 112l98 116zM1026 352q-15 -124 -51 -192q-44 -60 -94 -60h-881v317h627q140 0 140 19q0 33 -231 192q-222 156 -260 156q-6 -4 -37 -34q-21 18 -81 76q-59 47 -59 104q0 70 25 97q107 121 885 394l-50 -197
l-596 -223l270 -178t400 -361q-2 -67 -7 -110zM868 1463l-728 -328l-26 52l733 328z" />
    <glyph glyph-name="u06b1.medial.glyphFB9D" unicode="&#x6b1;" horiz-adv-x="1042" arabic-form="medial" 
d="M231 1494l88 108l134 -114l-98 -115l-128 106l-89 -106l-132 112l98 116zM0 100v317h627q140 0 140 19q0 33 -231 192q-222 156 -260 156q-6 -4 -37 -34q-21 18 -81 76q-59 47 -59 104q0 70 25 97q107 121 885 394l-50 -197l-596 -223l270 -178t400 -361q-1 -24 -2 -45
h61v-317h-1092zM868 1463l-728 -328l-26 52l733 328z" />
    <glyph glyph-name="u06ba.isolated.glyphFB9E" unicode="&#x6ba;" horiz-adv-x="1269" arabic-form="isolated" 
d="M1252 320q0 -394 -148 -505q-351 -233 -666 -236q-120 0 -202.5 20t-133.5 75t-73.5 150.5t-22.5 247.5q0 168 47.5 311.5t120 242t115.5 112.5q-29 -52 -104.5 -238.5t-73.5 -292.5q-2 -150 81.5 -244t271.5 -94q198 0 485 108q117 47 128 72q8 40 8 91q0 46 -14.5 127
t-56.5 188t-68 138l170 253q136 -175 136 -526z" />
    <glyph glyph-name="u06ba.final.glyphFB9F" unicode="&#x6ba;" horiz-adv-x="1262" arabic-form="final" 
d="M1104 -185q-351 -233 -666 -236q-120 0 -202.5 20t-133.5 75t-73.5 150.5t-22.5 247.5q0 168 47.5 311.5t120 242t115.5 112.5q-29 -52 -104.5 -238.5t-73.5 -292.5q-2 -150 81.5 -244t271.5 -94q198 0 485 108q117 47 128 72q8 40 8 91q0 46 -14.5 127t-56.5 188
t-68 138l170 253q116 -150 133 -429h73v-317h-85q-32 -209 -133 -285z" />
    <glyph glyph-name="u06bb.isolated.glyphFBA0" unicode="&#x6bb;" horiz-adv-x="1269" arabic-form="isolated" 
d="M1252 320q0 -394 -148 -505q-351 -233 -666 -236q-120 0 -202.5 20t-133.5 75t-73.5 150.5t-22.5 247.5q0 168 47.5 311.5t120 242t115.5 112.5q-29 -52 -104.5 -238.5t-73.5 -292.5q-2 -150 81.5 -244t271.5 -94q198 0 485 108q117 47 128 72q8 40 8 91q0 46 -14.5 127
t-56.5 188t-68 138l170 253q136 -175 136 -526zM894 1091q-21 -45 -42 -45h-506l-28 123q30 -6 52 -6q54 0 94 8v284l-16 80l83 66l6 -79l36 -37l-31 -62l-8 -217q170 156 247 156q100 -2 130 -57t0 -173zM873 1175q0 43 -39 65t-91 22q-31 0 -102.5 -43t-77.5 -53
q47 -4 63 -6t39 -2q208 0 208 17z" />
    <glyph glyph-name="u06bb.final.glyphFBA1" unicode="&#x6bb;" horiz-adv-x="1262" arabic-form="final" 
d="M1104 -185q-351 -233 -666 -236q-120 0 -202.5 20t-133.5 75t-73.5 150.5t-22.5 247.5q0 168 47.5 311.5t120 242t115.5 112.5q-29 -52 -104.5 -238.5t-73.5 -292.5q-2 -150 81.5 -244t271.5 -94q198 0 485 108q117 47 128 72q8 40 8 91q0 46 -14.5 127t-56.5 188
t-68 138l170 253q116 -150 133 -429h73v-317h-85q-32 -209 -133 -285zM929 1091q-21 -45 -42 -45h-506l-28 123q30 -6 52 -6q54 0 94 8v284l-16 80l83 66l6 -79l36 -37l-31 -62l-8 -217q170 156 247 156q100 -2 130 -57t0 -173zM908 1175q0 43 -39 65t-91 22
q-31 0 -102.5 -43t-77.5 -53q47 -4 63 -6t39 -2q208 0 208 17z" />
    <glyph glyph-name="u06bb.initial.glyphFBA2" unicode="&#x6bb;" horiz-adv-x="908" arabic-form="initial" 
d="M909 336q0 -236 -65 -236h-844v317h650q22 0 22 37q0 27 -68.5 149.5t-87.5 122.5l170 264q82 -68 158 -298q65 -230 65 -356zM719 1235q-21 -45 -42 -45h-506l-28 123q30 -6 52 -6q54 0 94 8v284l-16 80l83 66l6 -79l36 -37l-31 -62l-8 -217q170 156 247 156
q100 -2 130 -57t0 -173zM698 1319q0 43 -39 65t-91 22q-31 0 -102.5 -43t-77.5 -53q47 -4 63 -6t39 -2q208 0 208 17z" />
    <glyph glyph-name="u06bb.medial.glyphFBA3" unicode="&#x6bb;" horiz-adv-x="914" arabic-form="medial" 
d="M974 100h-974v317h656q22 0 22 37q0 27 -57 133.5t-103 144.5l178 257q91 -102 145.5 -292.5t54.5 -279.5h78v-317zM752 1234q-21 -45 -42 -45h-506l-28 123q30 -6 52 -6q54 0 94 8v284l-16 80l83 66l6 -79l36 -37l-31 -62l-8 -217q170 156 247 156q100 -2 130 -57
t0 -173zM731 1318q0 43 -39 65t-91 22q-31 0 -102.5 -43t-77.5 -53q47 -4 63 -6t39 -2q208 0 208 17z" />
    <glyph glyph-name="u06c0.isolated.glyphFBA4" unicode="&#x6c0;" horiz-adv-x="1013" arabic-form="isolated" 
d="M505 997q44 -57 72 -80l219 -162q156 -117 161 -169q8 -75 -52 -213q-54 -120 -93 -153q-63 -55 -203 -120q-185 -83 -320 -83q-110 0 -173.5 58.5t-63.5 157.5q0 278 453 764zM715 404q8 21 -340 276q-24 -8 -86 -101q-71 -107 -71 -167q0 -21 11 -34q49 -67 179 -67
q97 0 198 33.5t109 59.5zM534 1468q-20 21 -122 21q-26 0 -48 -3t-53 -44.5t-31 -69.5q0 -8 2 -13q26 -50 146 -50q36 0 67 8l151 42l-26 -144q-93 -23 -145 -46q-78 -37 -169 -107q-81 -62 -78 -62q-16 -3 -16 15q0 29 42 104q36 63 44 70q-13 0 -60 21q-55 24 -57 44
q-11 112 85.5 248.5t192.5 136.5q29 0 68 -13q54 -18 59 -18z" />
    <glyph glyph-name="u06c0.final.glyphFBA5" unicode="&#x6c0;" horiz-adv-x="920" arabic-form="final" 
d="M981 100h-137q-106 0 -142 51q-49 83 -66 266q0 36 -22 55l-170 -227l-39 -5q-61 0 -301 98q-78 34 -78 89q0 33 133 344q63 131 310 189l101 24l-13 151l178 175v-774q2 -120 83 -119h162zM611 576q-21 297 -32 305q-262 -78 -387 -211q142 -78 205.5 -107t130.5 -29
q88 0 83 42zM366 1528q-20 21 -122 21q-26 0 -48 -3t-53 -44.5t-31 -69.5q0 -8 2 -13q26 -50 146 -50q36 0 67 8l151 42l-26 -144q-93 -23 -145 -46q-78 -37 -169 -107q-81 -62 -78 -62q-16 -3 -16 15q0 29 42 104q36 63 44 70q-13 0 -60 21q-55 24 -57 44
q-11 112 85.5 248.5t192.5 136.5q29 0 68 -13q54 -18 59 -18z" />
    <glyph glyph-name="u06c1.isolated.glyphFBA6" unicode="&#x6c1;" horiz-adv-x="981" arabic-form="isolated" 
d="M505 997q44 -57 72 -80l219 -162q156 -117 161 -169q8 -75 -52 -213q-54 -120 -93 -153q-63 -55 -203 -120q-185 -83 -320 -83q-110 0 -173.5 58.5t-63.5 157.5q0 278 453 764zM715 404q8 21 -340 276q-24 -8 -86 -101q-71 -107 -71 -167q0 -21 11 -34q49 -67 179 -67
q97 0 198 33.5t109 59.5z" />
    <glyph glyph-name="u06c1.final.glyphFBA7" unicode="&#x6c1;" horiz-adv-x="985" arabic-form="final" 
d="M905 99v1q-54 2 -93 60q-60 85 -126 85q-37 0 -187 -46q-121 -40 -170 -62t-91 -46q-98 -49 -197 -158q25 164 59 221q55 101 209 226q60 54 190 101q183 75 220 75q23 0 46.5 -12t42 -31t42.5 -55q22 -34 68 -41h127v-317z" />
    <glyph glyph-name="u06c1.initial.glyphFBA8" unicode="&#x6c1;" horiz-adv-x="915" arabic-form="initial" 
d="M909 336q0 -225 -59 -236l-33 -30l-72 -70q-72 -72 -72 -142q154 -73 154 -176q0 -28 -14 -54t-36.5 -48t-49 -35t-54.5 -13q-76 0 -122.5 58.5t-46.5 153.5q0 174 189 356h-693v317h650q22 0 22 37q0 27 -68.5 149.5t-87.5 122.5l170 264q82 -68 158 -298
q65 -230 65 -356z" />
    <glyph glyph-name="u06c1.medial.glyphFBA9" unicode="&#x6c1;" horiz-adv-x="1000" arabic-form="medial" 
d="M1060 100h-219q-177 0 -279 -144q-59 -94 -59 -137q0 -13 0.5 -52.5t16.5 -89t16 -95.5q0 -35 -39.5 -86t-103.5 -51q-21 0 -57.5 5.5t-50.5 25.5t-42 133.5t-28 254.5q0 175 53 314q-119 -78 -268 -78v317q168 0 249 20t123 53.5t62 33.5q42 0 42 -34q0 -18 -44 -121
q-64 -103 -71 -158.5t-7 -74.5q5 -67 18 -67q16 0 78 81q57 80 118 133q160 134 405 134h87v-317z" />
    <glyph glyph-name="u06be.isolated.glyphFBAA" unicode="&#x6be;" horiz-adv-x="1588" arabic-form="isolated" 
d="M1575 460q0 -34 -7 -119t-40 -174.5t-62.5 -120.5t-44.5 -31q-17 0 -178 64l-312 122q-250 -188 -756 -188q-212 0 -295 35q481 98 692 369q-19 184 90 324q101 134 233 203l-110 113l74 117q62 120 98 120q108 0 320 -215q298 -331 298 -619zM1426 335q0 172 -81 310
t-184 181l-8 -4q1 -14 0.5 -50t-0.5 -56q0 -151 -100 -293q189 -53 366 -124q7 13 7 36zM1051 646q0 83 -18 119.5t-44 36.5q-134 0 -221.5 -107t-87.5 -188q0 -29 70.5 -45t136.5 -15t99 -1q71 76 65 200z" />
    <glyph glyph-name="u06be.final.glyphFBAB" unicode="&#x6be;" horiz-adv-x="1576" arabic-form="final" 
d="M1575 460q0 -16 -2 -43h63v-317h-71l-49 37q-26 -66 -51 -91q-29 -31 -44 -31q-17 0 -178 64l-312 122q-250 -188 -756 -188q-212 0 -295 35q481 98 692 369q-19 184 90 324q101 134 233 203l-110 113l74 117q62 120 98 120q108 0 320 -215q298 -331 298 -619zM1426 335
q0 172 -81 310t-184 181l-8 -4q1 -14 0.5 -50t-0.5 -56q0 -151 -100 -293q189 -53 366 -124q7 13 7 36zM1051 646q0 83 -18 119.5t-44 36.5q-134 0 -221.5 -107t-87.5 -188q0 -29 70.5 -45t136.5 -15t99 -1q71 76 65 200z" />
    <glyph glyph-name="u06be.initial.glyphFBAC" unicode="&#x6be;" horiz-adv-x="1382" arabic-form="initial" 
d="M1379 397q0 -31 -15 -100.5t-57 -175.5t-88 -106q-21 0 -244 92l-244 94q-231 -101 -455 -101h-276v317h372l3 62q18 176 110 288t212 174l-109 119l72 116q66 119 97 119q127 0 375 -274.5t247 -623.5zM1229 326q17 114 -102 341q-118 152 -166 152l-8 -4q1 -12 0 -58
t-1 -65q0 -127 -99 -269q0 -13 131 -48.5t239 -82.5q6 13 6 34zM850 609q0 126 -19 159.5t-45 33.5q-102 6 -204.5 -95.5t-102.5 -198.5q0 -35 137 -53t182 0q52 86 52 154z" />
    <glyph glyph-name="u06be.medial.glyphFBAD" unicode="&#x6be;" horiz-adv-x="1382" arabic-form="medial" 
d="M1219 15q-21 0 -244 92l-244 94q-231 -101 -455 -101h-276v317h372l3 62q18 176 110 288t212 174l-109 119l72 116q66 119 97 119q127 0 375 -275q241 -266 247 -603h63v-317h-95l-38 28q-1 -4 -2 -7q-42 -106 -88 -106zM1229 326q17 114 -102 341q-118 152 -166 152
l-8 -4q1 -12 0 -58t-1 -65q0 -127 -99 -269q0 -13 131 -48.5t239 -82.5q6 13 6 34zM850 609q0 126 -19 159.5t-45 33.5q-102 6 -204.5 -95.5t-102.5 -198.5q0 -35 137 -53t182 0q52 86 52 154z" />
    <glyph glyph-name="u06d2.isolated.glyphFBAE" unicode="&#x6d2;" horiz-adv-x="1292" arabic-form="isolated" 
d="M1382 -174l-121 -262h-975q-12 156 -17 211.5t-5 70.5q0 121 106 353q96 130 213 168q68 22 271 22q72 0 148 69q75 68 112 68q23 0 46.5 -12t42 -31t30 -43.5t11.5 -47.5v-292q-77 145 -163 145q-37 0 -90 -46q-52 -47 -99 -48q-110 -4 -169.5 -8t-70.5 -7
q-86 -18 -201 -132q-96 -87 -96 -150q0 -31 175 -31q87 0 138 1.5t49 1.5h665z" />
    <glyph glyph-name="u06d2.final.glyphFBAF" unicode="&#x6d2;" horiz-adv-x="1261" arabic-form="final" 
d="M1382 -174l-121 -262h-975q-12 156 -17 211.5t-5 70.5q0 121 106 353q96 130 213 168q68 22 271 22q72 0 148 69q75 68 112 68q23 0 46.5 -12t42 -31t30.5 -40.5t12 -25.5h76v-317h-77q-77 145 -163 145q-37 0 -90 -46q-52 -47 -99 -48q-110 -4 -169.5 -8t-70.5 -7
q-86 -18 -201 -132q-96 -87 -96 -150q0 -31 175 -31q87 0 138 1.5t49 1.5h665z" />
    <glyph glyph-name="u06d3.isolated.glyphFBB0" unicode="&#x6d3;" horiz-adv-x="1292" arabic-form="isolated" 
d="M1382 -174l-121 -262h-975q-12 156 -17 211.5t-5 70.5q0 121 106 353q96 130 213 168q68 22 271 22q72 0 148 69q75 68 112 68q23 0 46.5 -12t42 -31t30 -43.5t11.5 -47.5v-292q-77 145 -163 145q-37 0 -90 -46q-52 -47 -99 -48q-110 -4 -169.5 -8t-70.5 -7
q-86 -18 -201 -132q-96 -87 -96 -150q0 -31 175 -31q87 0 138 1.5t49 1.5h665zM549 997q-20 21 -122 21q-26 0 -48 -3t-53 -44.5t-31 -69.5q0 -8 2 -13q26 -50 146 -50q36 0 67 8l151 42l-26 -144q-93 -23 -145 -46q-78 -37 -169 -107q-81 -62 -78 -62q-16 -3 -16 15
q0 29 42 104q36 63 44 70q-13 0 -60 21q-55 24 -57 44q-11 112 85.5 248.5t192.5 136.5q29 0 68 -13q54 -18 59 -18z" />
    <glyph glyph-name="u06d3.final.glyphFBB1" unicode="&#x6d3;" horiz-adv-x="1261" arabic-form="final" 
d="M1382 -174l-121 -262h-975q-12 156 -17 211.5t-5 70.5q0 121 106 353q96 130 213 168q68 22 271 22q72 0 148 69q75 68 112 68q23 0 46.5 -12t42 -31t30.5 -40.5t12 -25.5h76v-317h-77q-77 145 -163 145q-37 0 -90 -46q-52 -47 -99 -48q-110 -4 -169.5 -8t-70.5 -7
q-86 -18 -201 -132q-96 -87 -96 -150q0 -31 175 -31q87 0 138 1.5t49 1.5h665zM549 997q-20 21 -122 21q-26 0 -48 -3t-53 -44.5t-31 -69.5q0 -8 2 -13q26 -50 146 -50q36 0 67 8l151 42l-26 -144q-93 -23 -145 -46q-78 -37 -169 -107q-81 -62 -78 -62q-16 -3 -16 15
q0 29 42 104q36 63 44 70q-13 0 -60 21q-55 24 -57 44q-11 112 85.5 248.5t192.5 136.5q29 0 68 -13q54 -18 59 -18z" />
    <glyph glyph-name="u06ad.isolated.glyphFBD3" unicode="&#x6ad;" horiz-adv-x="1344" arabic-form="isolated" 
d="M1066 482q-1 -4 -1 -7q0 -4 -1 -6v756l-56 204l218 161l17 -196l92 -99l-77 -166v-783q0 -64 -1 -104t-3 -56q-16 -80 -292.5 -108.5t-336.5 -28.5q-608 0 -608 308q0 138 61 257q101 185 132 186l4 -1v-8q0 -15 -4.5 -48.5t-16.5 -106t-12 -86.5q3 -79 71 -127.5
t369 -48.5q82 0 230.5 14t193.5 46q13 7 19 35q1 -5 1 -12zM814 946q0 -237 -351 -267q-33 0 -49 7q235 95 235 129q0 9 -17 12t-40 4t-46.5 3t-35.5 10q-22 15 -22 61q0 27 16.5 63t49.5 87q129 136 172 136h3l-54 -102.5t-36 -74.5q20 -20 79 -28q83 -11 90 -14
q6 -8 6 -26zM254 1374l101 161l232 -141l-99 -158zM587 1394l99 157l226 -133l-99 -161zM642 1707l-91 -159l-214 125l97 156z" />
    <glyph glyph-name="u06ad.final.glyphFBD4" unicode="&#x6ad;" horiz-adv-x="1290" arabic-form="final" 
d="M822 936q-60 -237 -350 -237q-33 0 -50 7q254 97 254 129q0 9 -17.5 12t-60.5 4l-46 4q-23 2 -39.5 13t-16.5 57q0 50 96 150q108 123 146 106q-57 -76 -78.5 -115t-21.5 -72q-3 -11 60 -17t87 -9t31 -3q6 -8 6 -29zM1051 469v988l210 123v-1163h89v-317h-172
q-297 -41 -536 -41q-616 0 -626 328q0 137 152 373q30 35 43 34q13 -12 -8 -94t-21 -154q0 -68 71 -120t378 -52q82 0 193 14q65 9 110 21t99 25q12 7 18 35zM254 1318l101 161l232 -141l-99 -158zM587 1338l99 157l226 -133l-99 -161zM642 1651l-91 -159l-214 125l97 156z
" />
    <glyph glyph-name="u06ad.initial.glyphFBD5" unicode="&#x6ad;" horiz-adv-x="1034" arabic-form="initial" 
d="M1026 352q-15 -124 -51 -192q-44 -60 -94 -60h-881v317h627q140 0 140 19q0 33 -231 192q-222 156 -260 156q-6 -4 -37 -34q-21 18 -81 76q-59 47 -59 104q0 70 25 97q107 121 885 394l-50 -197l-596 -223l270 -178t400 -361q-2 -67 -7 -110zM3 1433l101 161l232 -141
l-99 -158zM336 1453l99 157l226 -133l-99 -161zM391 1766l-91 -159l-214 125l97 156z" />
    <glyph glyph-name="u06ad.medial.glyphFBD6" unicode="&#x6ad;" horiz-adv-x="1042" arabic-form="medial" 
d="M0 100v317h627q140 0 140 19q0 33 -231 192q-222 156 -260 156q-6 -4 -37 -34q-21 18 -81 76q-59 47 -59 104q0 70 25 97q107 121 885 394l-50 -197l-596 -223l270 -178t400 -361q-1 -24 -2 -45h61v-317h-1092zM0 1430l101 161l232 -141l-99 -158zM333 1450l99 157
l226 -133l-99 -161zM388 1763l-91 -159l-214 125l97 156z" />
    <glyph glyph-name="u06c7.isolated.glyphFBD7" unicode="&#x6c7;" horiz-adv-x="1201" arabic-form="isolated" 
d="M1202 448q0 -357 -186 -648q-214 -370 -491 -370q-130 0 -312 116q-103 72 -172 135t-125 193q80 -66 213 -101q135 -38 234 -39q105 1 272.5 76.5t247 161t132.5 210.5q-11 -1 -20.5 -1.5t-18.5 -0.5q-152 0 -326 58t-174 153q0 289 130 522q123 199 238 199
q133 0 245.5 -225.5t112.5 -438.5zM1004 516q-1 38 -62 120.5t-106 107t-86 24.5q-22 0 -43.5 -15t-39 -39t-27.5 -53t-10 -54q0 -49 138 -83.5t181 -34.5q55 0 55 27zM796 1384l-33 -78l-48 12.5t-66 20.5q-56 -61 -126 -117.5t-157 -109.5l-43 82q2 -1 6 -1q22 0 125 79
q99 76 124 105q-120 62 -120 140q0 29 21.5 63t53.5 63t68.5 48.5t64.5 19.5q60 0 81.5 -23.5t21.5 -85.5q0 -69 -77 -189q17 -6 43.5 -13.5t60.5 -15.5zM663 1577q0 37 -35 37q-54 0 -54 -62q0 -46 54 -82q35 65 35 107z" />
    <glyph glyph-name="u06c7.final.glyphFBD8" unicode="&#x6c7;" horiz-adv-x="1204" arabic-form="final" 
d="M1016 -300q-214 -370 -491 -370q-130 0 -312 116q-103 72 -172 135t-125 193q80 -59 213 -101q135 -38 234 -39q105 1 272.5 76.5t247 161t132.5 210.5q-11 -1 -20.5 -1.5t-18.5 -0.5q-152 0 -326 58t-174 153q0 289 130 522q123 199 238 199q133 0 245 -226
q95 -189 110 -369h65v-317h-86q-43 -213 -162 -400zM1004 416q-1 38 -62 120.5t-106 107t-86 24.5q-22 0 -43.5 -15t-39 -39t-27.5 -53t-10 -54q0 -49 138 -83.5t181 -34.5q55 0 55 27zM797 1284l-33 -78l-48 12.5t-66 20.5q-56 -61 -126 -117.5t-157 -109.5l-43 82
q2 -1 6 -1q22 0 125 79q99 76 124 105q-120 62 -120 140q0 29 21.5 63t53.5 63t68.5 48.5t64.5 19.5q60 0 81.5 -23.5t21.5 -85.5q0 -69 -77 -189q17 -6 43.5 -13.5t60.5 -15.5zM664 1477q0 37 -35 37q-54 0 -54 -62q0 -46 54 -82q35 65 35 107z" />
    <glyph glyph-name="u06c6.isolated.glyphFBD9" unicode="&#x6c6;" horiz-adv-x="1201" arabic-form="isolated" 
d="M1202 448q0 -357 -186 -648q-214 -370 -491 -370q-130 0 -312 116q-103 72 -172 135t-125 193q80 -66 213 -101q135 -38 234 -39q105 1 272.5 76.5t247 161t132.5 210.5q-11 -1 -20.5 -1.5t-18.5 -0.5q-152 0 -326 58t-174 153q0 289 130 522q123 199 238 199
q133 0 245.5 -225.5t112.5 -438.5zM1004 516q-1 38 -62 120.5t-106 107t-86 24.5q-22 0 -43.5 -15t-39 -39t-27.5 -53t-10 -54q0 -49 138 -83.5t181 -34.5q55 0 55 27zM798 1602l-172 -292q-27 -28 -68 -28q-40 0 -67 28l-170 291l75 1l162 -179l166 179h74z" />
    <glyph glyph-name="u06c6.final.glyphFBDA" unicode="&#x6c6;" horiz-adv-x="1204" arabic-form="final" 
d="M1016 -300q-214 -370 -491 -370q-130 0 -312 116q-103 72 -172 135t-125 193q80 -59 213 -101q135 -38 234 -39q105 1 272.5 76.5t247 161t132.5 210.5q-11 -1 -20.5 -1.5t-18.5 -0.5q-152 0 -326 58t-174 153q0 289 130 522q123 199 238 199q133 0 245 -226
q95 -189 110 -369h65v-317h-86q-43 -213 -162 -400zM1004 416q-1 38 -62 120.5t-106 107t-86 24.5q-22 0 -43.5 -15t-39 -39t-27.5 -53t-10 -54q0 -49 138 -83.5t181 -34.5q55 0 55 27zM829 1602l-172 -292q-27 -28 -68 -28q-40 0 -67 28l-170 291l75 1l162 -179l166 179h74
z" />
    <glyph glyph-name="u06c8.isolated.glyphFBDB" unicode="&#x6c8;" horiz-adv-x="1201" arabic-form="isolated" 
d="M1202 448q0 -357 -186 -648q-214 -370 -491 -370q-130 0 -312 116q-103 72 -172 135t-125 193q80 -66 213 -101q135 -38 234 -39q105 1 272.5 76.5t247 161t132.5 210.5q-11 -1 -20.5 -1.5t-18.5 -0.5q-152 0 -326 58t-174 153q0 289 130 522q123 199 238 199
q133 0 245.5 -225.5t112.5 -438.5zM1004 516q-1 38 -62 120.5t-106 107t-86 24.5q-22 0 -43.5 -15t-39 -39t-27.5 -53t-10 -54q0 -49 138 -83.5t181 -34.5q55 0 55 27zM610 1181l-101 -69v415l101 59v-405z" />
    <glyph glyph-name="u06c8.final.glyphFBDC" unicode="&#x6c8;" horiz-adv-x="1204" arabic-form="final" 
d="M1016 -300q-214 -370 -491 -370q-130 0 -312 116q-103 72 -172 135t-125 193q80 -59 213 -101q135 -38 234 -39q105 1 272.5 76.5t247 161t132.5 210.5q-11 -1 -20.5 -1.5t-18.5 -0.5q-152 0 -326 58t-174 153q0 289 130 522q123 199 238 199q133 0 245 -226
q95 -189 110 -369h65v-317h-86q-43 -213 -162 -400zM1004 416q-1 38 -62 120.5t-106 107t-86 24.5q-22 0 -43.5 -15t-39 -39t-27.5 -53t-10 -54q0 -49 138 -83.5t181 -34.5q55 0 55 27zM711 1181l-101 -69v415l101 59v-405z" />
    <glyph glyph-name="u0677.isolated.glyphFBDD" unicode="&#x677;" horiz-adv-x="1201" arabic-form="isolated" 
d="M1105 1508q-15 16 -91 16q-20 0 -36.5 -2.5t-39.5 -33.5t-23 -52q0 -6 1 -10q20 -37 110 -37q27 0 50 6l113 31l-19 -108q-70 -17 -109 -34q-58 -28 -127 -80q-60 -47 -58 -47q-12 -2 -12 11q0 22 31 78q27 48 33 53q-9 0 -45 16q-41 18 -42 33q-9 84 63.5 186t144.5 102
q22 0 51 -9q41 -14 44 -14zM774 1359l-25 -58q-15 3 -36 9l-50 15q-42 -45 -94.5 -87.5t-117.5 -82.5l-32 62q1 -1 4 -1q17 0 94 59q74 57 93 79q-90 46 -90 105q0 22 16 47.5t40 47t51.5 36t48.5 14.5q45 0 61 -17.5t16 -63.5q0 -52 -57 -142q12 -5 32 -10.5t46 -11.5z
M674 1504q0 28 -26 28q-41 0 -41 -47q0 -34 41 -61q26 48 26 80zM1202 448q0 -357 -186 -648q-214 -370 -491 -370q-130 0 -312 116q-103 72 -172 135t-125 193q80 -66 213 -101q135 -38 234 -39q105 1 272.5 76.5t247 161t132.5 210.5q-11 -1 -20.5 -1.5t-18.5 -0.5
q-152 0 -326 58t-174 153q0 289 130 522q123 199 238 199q133 0 245.5 -225.5t112.5 -438.5zM1004 516q-1 38 -62 120.5t-106 107t-86 24.5q-22 0 -43.5 -15t-39 -39t-27.5 -53t-10 -54q0 -49 138 -83.5t181 -34.5q55 0 55 27z" />
    <glyph glyph-name="u06cb.isolated.glyphFBDE" unicode="&#x6cb;" horiz-adv-x="1201" arabic-form="isolated" 
d="M1202 448q0 -357 -186 -648q-214 -370 -491 -370q-130 0 -312 116q-103 72 -172 135t-125 193q80 -66 213 -101q135 -38 234 -39q105 1 272.5 76.5t247 161t132.5 210.5q-11 -1 -20.5 -1.5t-18.5 -0.5q-152 0 -326 58t-174 153q0 289 130 522q123 199 238 199
q133 0 245.5 -225.5t112.5 -438.5zM1004 516q-1 38 -62 120.5t-106 107t-86 24.5q-22 0 -43.5 -15t-39 -39t-27.5 -53t-10 -54q0 -49 138 -83.5t181 -34.5q55 0 55 27zM330 1350l101 161l232 -141l-99 -158zM663 1370l99 157l226 -133l-99 -161zM718 1683l-91 -159l-214 125
l97 156z" />
    <glyph glyph-name="u06cb.final.glyphFBDF" unicode="&#x6cb;" horiz-adv-x="1204" arabic-form="final" 
d="M1016 -300q-214 -370 -491 -370q-130 0 -312 116q-103 72 -172 135t-125 193q80 -59 213 -101q135 -38 234 -39q105 1 272.5 76.5t247 161t132.5 210.5q-11 -1 -20.5 -1.5t-18.5 -0.5q-152 0 -326 58t-174 153q0 289 130 522q123 199 238 199q133 0 245 -226
q95 -189 110 -369h65v-317h-86q-43 -213 -162 -400zM1004 416q-1 38 -62 120.5t-106 107t-86 24.5q-22 0 -43.5 -15t-39 -39t-27.5 -53t-10 -54q0 -49 138 -83.5t181 -34.5q55 0 55 27zM331 1250l101 161l232 -141l-99 -158zM664 1270l99 157l226 -133l-99 -161zM719 1583
l-91 -159l-214 125l97 156z" />
    <glyph glyph-name="u06c5.isolated.glyphFBE0" unicode="&#x6c5;" horiz-adv-x="1201" arabic-form="isolated" 
d="M1202 448q0 -357 -186 -648q-214 -370 -491 -370q-130 0 -312 116q-103 72 -172 135t-125 193q80 -66 213 -101q135 -38 234 -39q105 1 272.5 76.5t247 161t132.5 210.5q-11 -1 -20.5 -1.5t-18.5 -0.5q-152 0 -326 58t-174 153q0 289 130 522q123 199 238 199
q133 0 245.5 -225.5t112.5 -438.5zM1004 516q-1 38 -62 120.5t-106 107t-86 24.5q-22 0 -43.5 -15t-39 -39t-27.5 -53t-10 -54q0 -49 138 -83.5t181 -34.5q55 0 55 27zM977 -91h-578l145 152h578z" />
    <glyph glyph-name="u06c5.final.glyphFBE1" unicode="&#x6c5;" horiz-adv-x="1204" arabic-form="final" 
d="M1016 -300q-214 -370 -491 -370q-130 0 -312 116q-103 72 -172 135t-125 193q80 -59 213 -101q135 -38 234 -39q105 1 272.5 76.5t247 161t132.5 210.5q-11 -1 -20.5 -1.5t-18.5 -0.5q-152 0 -326 58t-174 153q0 289 130 522q123 199 238 199q133 0 245 -226
q95 -189 110 -369h65v-317h-86q-43 -213 -162 -400zM1004 416q-1 38 -62 120.5t-106 107t-86 24.5q-22 0 -43.5 -15t-39 -39t-27.5 -53t-10 -54q0 -49 138 -83.5t181 -34.5q55 0 55 27zM977 -191h-578l145 152h578z" />
    <glyph glyph-name="u06c9.isolated.glyphFBE2" unicode="&#x6c9;" horiz-adv-x="1201" arabic-form="isolated" 
d="M1202 448q0 -357 -186 -648q-214 -370 -491 -370q-130 0 -312 116q-103 72 -172 135t-125 193q80 -66 213 -101q135 -38 234 -39q105 1 272.5 76.5t247 161t132.5 210.5q-11 -1 -20.5 -1.5t-18.5 -0.5q-152 0 -326 58t-174 153q0 289 130 522q123 199 238 199
q133 0 245.5 -225.5t112.5 -438.5zM1004 516q-1 38 -62 120.5t-106 107t-86 24.5q-22 0 -43.5 -15t-39 -39t-27.5 -53t-10 -54q0 -49 138 -83.5t181 -34.5q55 0 55 27zM824 1292l-166 179l-162 -179l-75 1l170 291q27 28 67 28q41 0 68 -28l172 -292h-74z" />
    <glyph glyph-name="u06c9.final.glyphFBE3" unicode="&#x6c9;" horiz-adv-x="1204" arabic-form="final" 
d="M1016 -300q-214 -370 -491 -370q-130 0 -312 116q-103 72 -172 135t-125 193q80 -59 213 -101q135 -38 234 -39q105 1 272.5 76.5t247 161t132.5 210.5q-11 -1 -20.5 -1.5t-18.5 -0.5q-152 0 -326 58t-174 153q0 289 130 522q123 199 238 199q133 0 245 -226
q95 -189 110 -369h65v-317h-86q-43 -213 -162 -400zM1004 416q-1 38 -62 120.5t-106 107t-86 24.5q-22 0 -43.5 -15t-39 -39t-27.5 -53t-10 -54q0 -49 138 -83.5t181 -34.5q55 0 55 27zM824 1292l-166 179l-162 -179l-75 1l170 291q27 28 67 28q41 0 68 -28l172 -292h-74z
" />
    <glyph glyph-name="u06d0.isolated.glyphFBE4" unicode="&#x6d0;" horiz-adv-x="1621" arabic-form="isolated" 
d="M1602 977q0 -92 -93 -239q-66 79 -113 79q-99 0 -311 -118q-175 -93 -175 -178q0 -11 141 -59q152 -43 218.5 -64.5t87.5 -27.5q72 -28 95.5 -41.5t23.5 -32.5l-52 -263q-19 -89 -376 -272q-311 -162 -553 -162q-110 0 -200.5 33.5t-154.5 97.5t-99 157t-35 210
q0 192 118 453q77 207 219 288q-79 -82 -141 -260q-40 -121 -55 -178t-15 -122q0 -87 37 -158t98.5 -121t139.5 -76t161 -22q157 0 284 33q152 46 267.5 92t132.5 80l-347 122q-165 66 -165 122q0 222 256 473q262 245 481 245q125 0 125 -91zM1397 -493l-156 127l164 193
l166 -141l-153 -185l153 -127l-161 -190l-167 140z" />
    <glyph glyph-name="u06d0.final.glyphFBE5" unicode="&#x6d0;" horiz-adv-x="1486" arabic-form="final" 
d="M1546 100h-329q-213 -1 -213 -16q0 -32 258 -138q128 -47 144 -91l7 -19l-68 -209q-29 -86 -286.5 -188.5t-541.5 -102.5q-213 0 -355.5 106.5t-142.5 320.5q0 190 135 451q98 162 141 172h1l3 -8q-8 -25 -39.5 -83l-81.5 -156.5t-50 -163.5q-20 -354 574 -354
q92 0 265 29q146 34 146 68q0 14 -247 120q-123 67 -124 86q-1 53 56.5 188.5t127.5 215.5q74 89 448 89h172v-317zM1278 -877l-156 127l164 193l166 -141l-153 -185l153 -127l-161 -190l-167 140z" />
    <glyph glyph-name="u06d0.initial.glyphFBE6" unicode="&#x6d0;" horiz-adv-x="908" arabic-form="initial" 
d="M909 336q0 -236 -65 -236h-844v317h650q22 0 22 37q0 27 -68.5 149.5t-87.5 122.5l170 264q82 -68 158 -298q65 -230 65 -356zM445 -320l-156 127l164 193l166 -141l-153 -185l153 -127l-161 -190l-167 140z" />
    <glyph glyph-name="u06d0.medial.glyphFBE7" unicode="&#x6d0;" horiz-adv-x="914" arabic-form="medial" 
d="M974 100h-974v317h656q22 0 22 37q0 27 -57 133.5t-103 144.5l178 257q91 -102 145.5 -292.5t54.5 -279.5h78v-317zM478 -320l-156 127l164 193l166 -141l-153 -185l153 -127l-161 -190l-167 140z" />
    <glyph glyph-name="u0649.initial.glyphFBE8" unicode="&#x649;" horiz-adv-x="908" arabic-form="initial" 
d="M909 336q0 -236 -65 -236h-844v317h650q22 0 22 37q0 27 -68.5 149.5t-87.5 122.5l170 264q82 -68 158 -298q65 -230 65 -356z" />
    <glyph glyph-name="u0649.medial.glyphFBE9" unicode="&#x649;" horiz-adv-x="914" arabic-form="medial" 
d="M974 100h-974v317h656q22 0 22 37q0 27 -57 133.5t-103 144.5l178 257q91 -102 145.5 -292.5t54.5 -279.5h78v-317z" />
    <glyph glyph-name="u0626_u0627.isolated.glyphFBEA" unicode="&#xfbea;" horiz-adv-x="1610" arabic-form="isolated" 
d="M762 100h-330q-109 0 -150 44t-41 131v1117l210 188v-1089q0 -73 68 -73h243v-318zM1611 336q0 -236 -65 -236h-844v317h650q22 0 22 37q0 27 -68.5 149.5t-87.5 122.5l170 264q82 -68 158 -298q65 -230 65 -356zM1402 1431q-20 21 -122 21q-26 0 -48 -3t-53 -44.5
t-31 -69.5q0 -8 2 -13q26 -50 146 -50q36 0 67 8l151 42l-26 -144q-93 -23 -145 -46q-78 -37 -169 -107q-81 -62 -78 -62q-16 -3 -16 15q0 29 42 104q36 63 44 70q-13 0 -60 21q-55 24 -57 44q-11 112 85.5 248.5t192.5 136.5q29 0 68 -13q54 -18 59 -18z" />
    <glyph glyph-name="u0626_u0627.final.glyphFBEB" unicode="&#xfbeb;" horiz-adv-x="1616" arabic-form="final" 
d="M762 100h-330q-109 0 -150 44t-41 131v1117l210 188v-1089q0 -73 68 -73h243v-318zM1676 100h-974v317h656q22 0 22 37q0 27 -57 133.5t-103 144.5l178 257q91 -102 145.5 -292.5t54.5 -279.5h78v-317zM1385 1430q-20 21 -122 21q-26 0 -48 -3t-53 -44.5t-31 -69.5
q0 -8 2 -13q26 -50 146 -50q36 0 67 8l151 42l-26 -144q-93 -23 -145 -46q-78 -37 -169 -107q-81 -62 -78 -62q-16 -3 -16 15q0 29 42 104q36 63 44 70q-13 0 -60 21q-55 24 -57 44q-11 112 85.5 248.5t192.5 136.5q29 0 68 -13q54 -18 59 -18z" />
    <glyph glyph-name="u0626_u06d5.isolated.glyphFBEC" unicode="&#xfbec;" horiz-adv-x="1828" arabic-form="isolated" 
d="M981 100h-137q-106 0 -142 51q-49 83 -66 266q0 36 -22 55l-170 -227l-39 -5q-61 0 -301 98q-78 34 -78 89q0 33 133 344q63 131 310 189l101 24l-13 151l178 175v-774q2 -120 83 -119h162zM611 576q-21 297 -32 305q-262 -78 -387 -211q142 -78 205.5 -107t130.5 -29
q88 0 83 42zM1829 336q0 -236 -65 -236h-844v317h650q22 0 22 37q0 27 -68.5 149.5t-87.5 122.5l170 264q82 -68 158 -298q65 -230 65 -356zM1620 1431q-20 21 -122 21q-26 0 -48 -3t-53 -44.5t-31 -69.5q0 -8 2 -13q26 -50 146 -50q36 0 67 8l151 42l-26 -144
q-93 -23 -145 -46q-78 -37 -169 -107q-81 -62 -78 -62q-16 -3 -16 15q0 29 42 104q36 63 44 70q-13 0 -60 21q-55 24 -57 44q-11 112 85.5 248.5t192.5 136.5q29 0 68 -13q54 -18 59 -18z" />
    <glyph glyph-name="u0626_u06d5.final.glyphFBED" unicode="&#xfbed;" horiz-adv-x="1834" arabic-form="final" 
d="M981 100h-137q-106 0 -142 51q-49 83 -66 266q0 36 -22 55l-170 -227l-39 -5q-61 0 -301 98q-78 34 -78 89q0 33 133 344q63 131 310 189l101 24l-13 151l178 175v-774q2 -120 83 -119h162zM611 576q-21 297 -32 305q-262 -78 -387 -211q142 -78 205.5 -107t130.5 -29
q88 0 83 42zM1894 100h-974v317h656q22 0 22 37q0 27 -57 133.5t-103 144.5l178 257q91 -102 145.5 -292.5t54.5 -279.5h78v-317zM1603 1430q-20 21 -122 21q-26 0 -48 -3t-53 -44.5t-31 -69.5q0 -8 2 -13q26 -50 146 -50q36 0 67 8l151 42l-26 -144q-93 -23 -145 -46
q-78 -37 -169 -107q-81 -62 -78 -62q-16 -3 -16 15q0 29 42 104q36 63 44 70q-13 0 -60 21q-55 24 -57 44q-11 112 85.5 248.5t192.5 136.5q29 0 68 -13q54 -18 59 -18z" />
    <glyph glyph-name="u0626_u0648.isolated.glyphFBEE" unicode="&#xfbee;" horiz-adv-x="2112" arabic-form="isolated" 
d="M1016 -300q-214 -370 -491 -370q-130 0 -312 116q-103 72 -172 135t-125 193q80 -59 213 -101q135 -38 234 -39q105 1 272.5 76.5t247 161t132.5 210.5q-11 -1 -20.5 -1.5t-18.5 -0.5q-152 0 -326 58t-174 153q0 289 130 522q123 199 238 199q133 0 245 -226
q95 -189 110 -369h65v-317h-86q-43 -213 -162 -400zM1004 416q-1 38 -62 120.5t-106 107t-86 24.5q-22 0 -43.5 -15t-39 -39t-27.5 -53t-10 -54q0 -49 138 -83.5t181 -34.5q55 0 55 27zM2113 336q0 -236 -65 -236h-844v317h650q22 0 22 37q0 27 -68.5 149.5t-87.5 122.5
l170 264q82 -68 158 -298q65 -230 65 -356zM1904 1431q-20 21 -122 21q-26 0 -48 -3t-53 -44.5t-31 -69.5q0 -8 2 -13q26 -50 146 -50q36 0 67 8l151 42l-26 -144q-93 -23 -145 -46q-78 -37 -169 -107q-81 -62 -78 -62q-16 -3 -16 15q0 29 42 104q36 63 44 70q-13 0 -60 21
q-55 24 -57 44q-11 112 85.5 248.5t192.5 136.5q29 0 68 -13q54 -18 59 -18z" />
    <glyph glyph-name="u0626_u0648.final.glyphFBEF" unicode="&#xfbef;" horiz-adv-x="2118" arabic-form="final" 
d="M1016 -300q-214 -370 -491 -370q-130 0 -312 116q-103 72 -172 135t-125 193q80 -59 213 -101q135 -38 234 -39q105 1 272.5 76.5t247 161t132.5 210.5q-11 -1 -20.5 -1.5t-18.5 -0.5q-152 0 -326 58t-174 153q0 289 130 522q123 199 238 199q133 0 245 -226
q95 -189 110 -369h65v-317h-86q-43 -213 -162 -400zM1004 416q-1 38 -62 120.5t-106 107t-86 24.5q-22 0 -43.5 -15t-39 -39t-27.5 -53t-10 -54q0 -49 138 -83.5t181 -34.5q55 0 55 27zM2178 100h-974v317h656q22 0 22 37q0 27 -57 133.5t-103 144.5l178 257
q91 -102 145.5 -292.5t54.5 -279.5h78v-317zM1887 1430q-20 21 -122 21q-26 0 -48 -3t-53 -44.5t-31 -69.5q0 -8 2 -13q26 -50 146 -50q36 0 67 8l151 42l-26 -144q-93 -23 -145 -46q-78 -37 -169 -107q-81 -62 -78 -62q-16 -3 -16 15q0 29 42 104q36 63 44 70q-13 0 -60 21
q-55 24 -57 44q-11 112 85.5 248.5t192.5 136.5q29 0 68 -13q54 -18 59 -18z" />
    <glyph glyph-name="u0626_u06c7.isolated.glyphFBF0" unicode="&#xfbf0;" horiz-adv-x="2112" arabic-form="isolated" 
d="M1016 -300q-214 -370 -491 -370q-130 0 -312 116q-103 72 -172 135t-125 193q80 -59 213 -101q135 -38 234 -39q105 1 272.5 76.5t247 161t132.5 210.5q-11 -1 -20.5 -1.5t-18.5 -0.5q-152 0 -326 58t-174 153q0 289 130 522q123 199 238 199q133 0 245 -226
q95 -189 110 -369h65v-317h-86q-43 -213 -162 -400zM1004 416q-1 38 -62 120.5t-106 107t-86 24.5q-22 0 -43.5 -15t-39 -39t-27.5 -53t-10 -54q0 -49 138 -83.5t181 -34.5q55 0 55 27zM797 1284l-33 -78l-48 12.5t-66 20.5q-56 -61 -126 -117.5t-157 -109.5l-43 82
q2 -1 6 -1q22 0 125 79q99 76 124 105q-120 62 -120 140q0 29 21.5 63t53.5 63t68.5 48.5t64.5 19.5q60 0 81.5 -23.5t21.5 -85.5q0 -69 -77 -189q17 -6 43.5 -13.5t60.5 -15.5zM664 1477q0 37 -35 37q-54 0 -54 -62q0 -46 54 -82q35 65 35 107zM2113 336q0 -236 -65 -236
h-844v317h650q22 0 22 37q0 27 -68.5 149.5t-87.5 122.5l170 264q82 -68 158 -298q65 -230 65 -356zM1904 1431q-20 21 -122 21q-26 0 -48 -3t-53 -44.5t-31 -69.5q0 -8 2 -13q26 -50 146 -50q36 0 67 8l151 42l-26 -144q-93 -23 -145 -46q-78 -37 -169 -107
q-81 -62 -78 -62q-16 -3 -16 15q0 29 42 104q36 63 44 70q-13 0 -60 21q-55 24 -57 44q-11 112 85.5 248.5t192.5 136.5q29 0 68 -13q54 -18 59 -18z" />
    <glyph glyph-name="u0626_u06c7.final.glyphFBF1" unicode="&#xfbf1;" horiz-adv-x="2118" arabic-form="final" 
d="M1016 -300q-214 -370 -491 -370q-130 0 -312 116q-103 72 -172 135t-125 193q80 -59 213 -101q135 -38 234 -39q105 1 272.5 76.5t247 161t132.5 210.5q-11 -1 -20.5 -1.5t-18.5 -0.5q-152 0 -326 58t-174 153q0 289 130 522q123 199 238 199q133 0 245 -226
q95 -189 110 -369h65v-317h-86q-43 -213 -162 -400zM1004 416q-1 38 -62 120.5t-106 107t-86 24.5q-22 0 -43.5 -15t-39 -39t-27.5 -53t-10 -54q0 -49 138 -83.5t181 -34.5q55 0 55 27zM797 1284l-33 -78l-48 12.5t-66 20.5q-56 -61 -126 -117.5t-157 -109.5l-43 82
q2 -1 6 -1q22 0 125 79q99 76 124 105q-120 62 -120 140q0 29 21.5 63t53.5 63t68.5 48.5t64.5 19.5q60 0 81.5 -23.5t21.5 -85.5q0 -69 -77 -189q17 -6 43.5 -13.5t60.5 -15.5zM664 1477q0 37 -35 37q-54 0 -54 -62q0 -46 54 -82q35 65 35 107zM2178 100h-974v317h656
q22 0 22 37q0 27 -57 133.5t-103 144.5l178 257q91 -102 145.5 -292.5t54.5 -279.5h78v-317zM1887 1430q-20 21 -122 21q-26 0 -48 -3t-53 -44.5t-31 -69.5q0 -8 2 -13q26 -50 146 -50q36 0 67 8l151 42l-26 -144q-93 -23 -145 -46q-78 -37 -169 -107q-81 -62 -78 -62
q-16 -3 -16 15q0 29 42 104q36 63 44 70q-13 0 -60 21q-55 24 -57 44q-11 112 85.5 248.5t192.5 136.5q29 0 68 -13q54 -18 59 -18z" />
    <glyph glyph-name="u0626_u06c6.isolated.glyphFBF2" unicode="&#xfbf2;" horiz-adv-x="2112" arabic-form="isolated" 
d="M1016 -300q-214 -370 -491 -370q-130 0 -312 116q-103 72 -172 135t-125 193q80 -59 213 -101q135 -38 234 -39q105 1 272.5 76.5t247 161t132.5 210.5q-11 -1 -20.5 -1.5t-18.5 -0.5q-152 0 -326 58t-174 153q0 289 130 522q123 199 238 199q133 0 245 -226
q95 -189 110 -369h65v-317h-86q-43 -213 -162 -400zM1004 416q-1 38 -62 120.5t-106 107t-86 24.5q-22 0 -43.5 -15t-39 -39t-27.5 -53t-10 -54q0 -49 138 -83.5t181 -34.5q55 0 55 27zM829 1602l-172 -292q-27 -28 -68 -28q-40 0 -67 28l-170 291l75 1l162 -179l166 179h74
zM2113 336q0 -236 -65 -236h-844v317h650q22 0 22 37q0 27 -68.5 149.5t-87.5 122.5l170 264q82 -68 158 -298q65 -230 65 -356zM1904 1431q-20 21 -122 21q-26 0 -48 -3t-53 -44.5t-31 -69.5q0 -8 2 -13q26 -50 146 -50q36 0 67 8l151 42l-26 -144q-93 -23 -145 -46
q-78 -37 -169 -107q-81 -62 -78 -62q-16 -3 -16 15q0 29 42 104q36 63 44 70q-13 0 -60 21q-55 24 -57 44q-11 112 85.5 248.5t192.5 136.5q29 0 68 -13q54 -18 59 -18z" />
    <glyph glyph-name="u0626_u06c6.final.glyphFBF3" unicode="&#xfbf3;" horiz-adv-x="2118" arabic-form="final" 
d="M1016 -300q-214 -370 -491 -370q-130 0 -312 116q-103 72 -172 135t-125 193q80 -59 213 -101q135 -38 234 -39q105 1 272.5 76.5t247 161t132.5 210.5q-11 -1 -20.5 -1.5t-18.5 -0.5q-152 0 -326 58t-174 153q0 289 130 522q123 199 238 199q133 0 245 -226
q95 -189 110 -369h65v-317h-86q-43 -213 -162 -400zM1004 416q-1 38 -62 120.5t-106 107t-86 24.5q-22 0 -43.5 -15t-39 -39t-27.5 -53t-10 -54q0 -49 138 -83.5t181 -34.5q55 0 55 27zM829 1602l-172 -292q-27 -28 -68 -28q-40 0 -67 28l-170 291l75 1l162 -179l166 179h74
zM2178 100h-974v317h656q22 0 22 37q0 27 -57 133.5t-103 144.5l178 257q91 -102 145.5 -292.5t54.5 -279.5h78v-317zM1887 1430q-20 21 -122 21q-26 0 -48 -3t-53 -44.5t-31 -69.5q0 -8 2 -13q26 -50 146 -50q36 0 67 8l151 42l-26 -144q-93 -23 -145 -46
q-78 -37 -169 -107q-81 -62 -78 -62q-16 -3 -16 15q0 29 42 104q36 63 44 70q-13 0 -60 21q-55 24 -57 44q-11 112 85.5 248.5t192.5 136.5q29 0 68 -13q54 -18 59 -18z" />
    <glyph glyph-name="u0626_u06c8.isolated.glyphFBF4" unicode="&#xfbf4;" horiz-adv-x="2112" arabic-form="isolated" 
d="M1016 -300q-214 -370 -491 -370q-130 0 -312 116q-103 72 -172 135t-125 193q80 -59 213 -101q135 -38 234 -39q105 1 272.5 76.5t247 161t132.5 210.5q-11 -1 -20.5 -1.5t-18.5 -0.5q-152 0 -326 58t-174 153q0 289 130 522q123 199 238 199q133 0 245 -226
q95 -189 110 -369h65v-317h-86q-43 -213 -162 -400zM1004 416q-1 38 -62 120.5t-106 107t-86 24.5q-22 0 -43.5 -15t-39 -39t-27.5 -53t-10 -54q0 -49 138 -83.5t181 -34.5q55 0 55 27zM711 1181l-101 -69v415l101 59v-405zM2113 336q0 -236 -65 -236h-844v317h650
q22 0 22 37q0 27 -68.5 149.5t-87.5 122.5l170 264q82 -68 158 -298q65 -230 65 -356zM1904 1431q-20 21 -122 21q-26 0 -48 -3t-53 -44.5t-31 -69.5q0 -8 2 -13q26 -50 146 -50q36 0 67 8l151 42l-26 -144q-93 -23 -145 -46q-78 -37 -169 -107q-81 -62 -78 -62
q-16 -3 -16 15q0 29 42 104q36 63 44 70q-13 0 -60 21q-55 24 -57 44q-11 112 85.5 248.5t192.5 136.5q29 0 68 -13q54 -18 59 -18z" />
    <glyph glyph-name="u0626_u06c8.final.glyphFBF5" unicode="&#xfbf5;" horiz-adv-x="2118" arabic-form="final" 
d="M1016 -300q-214 -370 -491 -370q-130 0 -312 116q-103 72 -172 135t-125 193q80 -59 213 -101q135 -38 234 -39q105 1 272.5 76.5t247 161t132.5 210.5q-11 -1 -20.5 -1.5t-18.5 -0.5q-152 0 -326 58t-174 153q0 289 130 522q123 199 238 199q133 0 245 -226
q95 -189 110 -369h65v-317h-86q-43 -213 -162 -400zM1004 416q-1 38 -62 120.5t-106 107t-86 24.5q-22 0 -43.5 -15t-39 -39t-27.5 -53t-10 -54q0 -49 138 -83.5t181 -34.5q55 0 55 27zM711 1181l-101 -69v415l101 59v-405zM2178 100h-974v317h656q22 0 22 37
q0 27 -57 133.5t-103 144.5l178 257q91 -102 145.5 -292.5t54.5 -279.5h78v-317zM1887 1430q-20 21 -122 21q-26 0 -48 -3t-53 -44.5t-31 -69.5q0 -8 2 -13q26 -50 146 -50q36 0 67 8l151 42l-26 -144q-93 -23 -145 -46q-78 -37 -169 -107q-81 -62 -78 -62q-16 -3 -16 15
q0 29 42 104q36 63 44 70q-13 0 -60 21q-55 24 -57 44q-11 112 85.5 248.5t192.5 136.5q29 0 68 -13q54 -18 59 -18z" />
    <glyph glyph-name="u0626_u06d0.isolated.glyphFBF6" unicode="&#xfbf6;" horiz-adv-x="2394" arabic-form="isolated" 
d="M1546 100h-329q-213 -1 -213 -16q0 -32 258 -138q128 -47 144 -91l7 -19l-68 -209q-29 -86 -286.5 -188.5t-541.5 -102.5q-213 0 -355.5 106.5t-142.5 320.5q0 190 135 451q98 162 141 172h1l3 -8q-8 -25 -39.5 -83l-81.5 -156.5t-50 -163.5q-20 -354 574 -354
q92 0 265 29q146 34 146 68q0 14 -247 120q-123 67 -124 86q-1 53 56.5 188.5t127.5 215.5q74 89 448 89h172v-317zM1278 -877l-156 127l164 193l166 -141l-153 -185l153 -127l-161 -190l-167 140zM2395 336q0 -236 -65 -236h-844v317h650q22 0 22 37q0 27 -68.5 149.5
t-87.5 122.5l170 264q82 -68 158 -298q65 -230 65 -356zM2186 1431q-20 21 -122 21q-26 0 -48 -3t-53 -44.5t-31 -69.5q0 -8 2 -13q26 -50 146 -50q36 0 67 8l151 42l-26 -144q-93 -23 -145 -46q-78 -37 -169 -107q-81 -62 -78 -62q-16 -3 -16 15q0 29 42 104q36 63 44 70
q-13 0 -60 21q-55 24 -57 44q-11 112 85.5 248.5t192.5 136.5q29 0 68 -13q54 -18 59 -18z" />
    <glyph glyph-name="u0626_u06d0.final.glyphFBF7" unicode="&#xfbf7;" horiz-adv-x="2400" arabic-form="final" 
d="M1546 100h-329q-213 -1 -213 -16q0 -32 258 -138q128 -47 144 -91l7 -19l-68 -209q-29 -86 -286.5 -188.5t-541.5 -102.5q-213 0 -355.5 106.5t-142.5 320.5q0 190 135 451q98 162 141 172h1l3 -8q-8 -25 -39.5 -83l-81.5 -156.5t-50 -163.5q-20 -354 574 -354
q92 0 265 29q146 34 146 68q0 14 -247 120q-123 67 -124 86q-1 53 56.5 188.5t127.5 215.5q74 89 448 89h172v-317zM1278 -877l-156 127l164 193l166 -141l-153 -185l153 -127l-161 -190l-167 140zM2460 100h-974v317h656q22 0 22 37q0 27 -57 133.5t-103 144.5l178 257
q91 -102 145.5 -292.5t54.5 -279.5h78v-317zM2169 1430q-20 21 -122 21q-26 0 -48 -3t-53 -44.5t-31 -69.5q0 -8 2 -13q26 -50 146 -50q36 0 67 8l151 42l-26 -144q-93 -23 -145 -46q-78 -37 -169 -107q-81 -62 -78 -62q-16 -3 -16 15q0 29 42 104q36 63 44 70q-13 0 -60 21
q-55 24 -57 44q-11 112 85.5 248.5t192.5 136.5q29 0 68 -13q54 -18 59 -18z" />
    <glyph glyph-name="u0626_u06d0.initial.glyphFBF8" unicode="&#xfbf8;" horiz-adv-x="1822" arabic-form="initial" 
d="M974 100h-974v317h656q22 0 22 37q0 27 -57 133.5t-103 144.5l178 257q91 -102 145.5 -292.5t54.5 -279.5h78v-317zM478 -320l-156 127l164 193l166 -141l-153 -185l153 -127l-161 -190l-167 140zM1823 336q0 -236 -65 -236h-844v317h650q22 0 22 37q0 27 -68.5 149.5
t-87.5 122.5l170 264q82 -68 158 -298q65 -230 65 -356zM1614 1431q-20 21 -122 21q-26 0 -48 -3t-53 -44.5t-31 -69.5q0 -8 2 -13q26 -50 146 -50q36 0 67 8l151 42l-26 -144q-93 -23 -145 -46q-78 -37 -169 -107q-81 -62 -78 -62q-16 -3 -16 15q0 29 42 104q36 63 44 70
q-13 0 -60 21q-55 24 -57 44q-11 112 85.5 248.5t192.5 136.5q29 0 68 -13q54 -18 59 -18z" />
    <glyph glyph-name="u0626_u0649.isolated.glyphFBF9" unicode="&#xfbf9;" horiz-adv-x="2394" arabic-form="isolated" 
d="M1546 100h-329q-213 -1 -213 -16q0 -32 258 -138q128 -47 144 -91l7 -19l-68 -209q-29 -86 -286.5 -188.5t-541.5 -102.5q-213 0 -355.5 106.5t-142.5 320.5q0 190 135 451q98 162 141 172h1l3 -8q-8 -25 -39.5 -83l-81.5 -156.5t-50 -163.5q-20 -354 574 -354
q92 0 265 29q146 34 146 68q0 14 -247 120q-123 67 -124 86q-1 53 56.5 188.5t127.5 215.5q74 89 448 89h172v-317zM2395 336q0 -236 -65 -236h-844v317h650q22 0 22 37q0 27 -68.5 149.5t-87.5 122.5l170 264q82 -68 158 -298q65 -230 65 -356zM2186 1431q-20 21 -122 21
q-26 0 -48 -3t-53 -44.5t-31 -69.5q0 -8 2 -13q26 -50 146 -50q36 0 67 8l151 42l-26 -144q-93 -23 -145 -46q-78 -37 -169 -107q-81 -62 -78 -62q-16 -3 -16 15q0 29 42 104q36 63 44 70q-13 0 -60 21q-55 24 -57 44q-11 112 85.5 248.5t192.5 136.5q29 0 68 -13
q54 -18 59 -18z" />
    <glyph glyph-name="u0626_u0649.final.glyphFBFA" unicode="&#xfbfa;" horiz-adv-x="2400" arabic-form="final" 
d="M1546 100h-329q-213 -1 -213 -16q0 -32 258 -138q128 -47 144 -91l7 -19l-68 -209q-29 -86 -286.5 -188.5t-541.5 -102.5q-213 0 -355.5 106.5t-142.5 320.5q0 190 135 451q98 162 141 172h1l3 -8q-8 -25 -39.5 -83l-81.5 -156.5t-50 -163.5q-20 -354 574 -354
q92 0 265 29q146 34 146 68q0 14 -247 120q-123 67 -124 86q-1 53 56.5 188.5t127.5 215.5q74 89 448 89h172v-317zM2460 100h-974v317h656q22 0 22 37q0 27 -57 133.5t-103 144.5l178 257q91 -102 145.5 -292.5t54.5 -279.5h78v-317zM2169 1430q-20 21 -122 21
q-26 0 -48 -3t-53 -44.5t-31 -69.5q0 -8 2 -13q26 -50 146 -50q36 0 67 8l151 42l-26 -144q-93 -23 -145 -46q-78 -37 -169 -107q-81 -62 -78 -62q-16 -3 -16 15q0 29 42 104q36 63 44 70q-13 0 -60 21q-55 24 -57 44q-11 112 85.5 248.5t192.5 136.5q29 0 68 -13
q54 -18 59 -18z" />
    <glyph glyph-name="u0626_u0649.initial.glyphFBFB" unicode="&#xfbfb;" horiz-adv-x="1822" arabic-form="initial" 
d="M974 100h-974v317h656q22 0 22 37q0 27 -57 133.5t-103 144.5l178 257q91 -102 145.5 -292.5t54.5 -279.5h78v-317zM1823 336q0 -236 -65 -236h-844v317h650q22 0 22 37q0 27 -68.5 149.5t-87.5 122.5l170 264q82 -68 158 -298q65 -230 65 -356zM1614 1431
q-20 21 -122 21q-26 0 -48 -3t-53 -44.5t-31 -69.5q0 -8 2 -13q26 -50 146 -50q36 0 67 8l151 42l-26 -144q-93 -23 -145 -46q-78 -37 -169 -107q-81 -62 -78 -62q-16 -3 -16 15q0 29 42 104q36 63 44 70q-13 0 -60 21q-55 24 -57 44q-11 112 85.5 248.5t192.5 136.5
q29 0 68 -13q54 -18 59 -18z" />
    <glyph glyph-name="u06cc.isolated.glyphFBFC" unicode="&#x6cc;" horiz-adv-x="1621" arabic-form="isolated" 
d="M1602 977q0 -92 -93 -239q-66 79 -113 79q-99 0 -311 -118q-175 -93 -175 -178q0 -11 141 -59q152 -43 218.5 -64.5t87.5 -27.5q72 -28 95.5 -41.5t23.5 -32.5l-52 -263q-19 -89 -376 -272q-311 -162 -553 -162q-110 0 -200.5 33.5t-154.5 97.5t-99 157t-35 210
q0 192 118 453q77 207 219 288q-79 -82 -141 -260q-40 -121 -55 -178t-15 -122q0 -87 37 -158t98.5 -121t139.5 -76t161 -22q157 0 284 33q152 46 267.5 92t132.5 80l-347 122q-165 66 -165 122q0 222 256 473q262 245 481 245q125 0 125 -91z" />
    <glyph glyph-name="u06cc.final.glyphFBFD" unicode="&#x6cc;" horiz-adv-x="1486" arabic-form="final" 
d="M1546 100h-329q-213 -1 -213 -16q0 -32 258 -138q128 -47 144 -91l7 -19l-68 -209q-29 -86 -286.5 -188.5t-541.5 -102.5q-213 0 -355.5 106.5t-142.5 320.5q0 190 135 451q98 162 141 172h1l3 -8q-8 -25 -39.5 -83l-81.5 -156.5t-50 -163.5q-20 -354 574 -354
q92 0 265 29q146 34 146 68q0 14 -247 120q-123 67 -124 86q-1 53 56.5 188.5t127.5 215.5q74 89 448 89h172v-317z" />
    <glyph glyph-name="u06cc.initial.glyphFBFE" unicode="&#x6cc;" horiz-adv-x="908" arabic-form="initial" 
d="M909 336q0 -236 -65 -236h-844v317h650q22 0 22 37q0 27 -68.5 149.5t-87.5 122.5l170 264q82 -68 158 -298q65 -230 65 -356zM522 -256l127 156l193 -164l-141 -166l-185 153l-127 -153l-190 161l140 167z" />
    <glyph glyph-name="u06cc.medial.glyphFBFF" unicode="&#x6cc;" horiz-adv-x="914" arabic-form="medial" 
d="M974 100h-974v317h656q22 0 22 37q0 27 -57 133.5t-103 144.5l178 257q91 -102 145.5 -292.5t54.5 -279.5h78v-317zM522 -256l127 156l193 -164l-141 -166l-185 153l-127 -153l-190 161l140 167z" />
    <glyph glyph-name="u0626_u062c.isolated.glyphFC00" unicode="&#xfc00;" horiz-adv-x="2372" arabic-form="isolated" 
d="M1524 100h-412q-298 0 -298 226q4 259 10 276q-326 -46 -472 -250.5t-146 -430.5q0 -161 138 -304.5t485 -143.5q197 7 418.5 56t234.5 59q-58 -98 -353 -285q-168 -125 -398 -125q-333 0 -492 192.5t-159 451.5q0 388 336 816q-33 19 -72 19q-173 0 -338 -129
q109 222 138 258q84 150 298 150q93 0 242.5 -34.5t272.5 -34.5q90 0 322 26l-82 -244l-279 -32l-2 -31q0 -108 37 -138.5t127 -30.5l444 1v-318zM570 134l292 -117l-107 -237l-286 120zM2373 336q0 -236 -65 -236h-844v317h650q22 0 22 37q0 27 -68.5 149.5t-87.5 122.5
l170 264q82 -68 158 -298q65 -230 65 -356zM2164 1431q-20 21 -122 21q-26 0 -48 -3t-53 -44.5t-31 -69.5q0 -8 2 -13q26 -50 146 -50q36 0 67 8l151 42l-26 -144q-93 -23 -145 -46q-78 -37 -169 -107q-81 -62 -78 -62q-16 -3 -16 15q0 29 42 104q36 63 44 70q-13 0 -60 21
q-55 24 -57 44q-11 112 85.5 248.5t192.5 136.5q29 0 68 -13q54 -18 59 -18z" />
    <glyph glyph-name="u0626_u062d.isolated.glyphFC01" unicode="&#xfc01;" horiz-adv-x="2372" arabic-form="isolated" 
d="M1524 100h-412q-298 0 -298 226q4 259 10 276q-326 -46 -472 -250.5t-146 -430.5q0 -161 138 -304.5t485 -143.5q197 7 418.5 56t234.5 59q-58 -98 -353 -285q-168 -125 -398 -125q-333 0 -492 192.5t-159 451.5q0 388 336 816q-33 19 -72 19q-173 0 -338 -129
q109 222 138 258q84 150 298 150q93 0 242.5 -34.5t272.5 -34.5q90 0 322 26l-82 -244l-279 -32l-2 -31q0 -108 37 -138.5t127 -30.5l444 1v-318zM2373 336q0 -236 -65 -236h-844v317h650q22 0 22 37q0 27 -68.5 149.5t-87.5 122.5l170 264q82 -68 158 -298q65 -230 65 -356
zM2164 1431q-20 21 -122 21q-26 0 -48 -3t-53 -44.5t-31 -69.5q0 -8 2 -13q26 -50 146 -50q36 0 67 8l151 42l-26 -144q-93 -23 -145 -46q-78 -37 -169 -107q-81 -62 -78 -62q-16 -3 -16 15q0 29 42 104q36 63 44 70q-13 0 -60 21q-55 24 -57 44q-11 112 85.5 248.5
t192.5 136.5q29 0 68 -13q54 -18 59 -18z" />
    <glyph glyph-name="u0626_u0645.isolated.glyphFC02" unicode="&#xfc02;" horiz-adv-x="1882" arabic-form="isolated" 
d="M699 105q-75 3 -167 13q-390 20 -391 -44l9 -37q4 -12 13 -51.5t35 -137.5q31 -140 43.5 -252t10.5 -200q0 -108 -78 -244q-17 180 -43 338t-61 297q-34 95 -46.5 161t-12.5 104q50 275 131 321q46 25 211.5 27t226.5 2q22 0 33 -4l-218 279l-279 -144l2 41q1 34 160 240
q115 116 214 116q89 0 159 -99l125 -212q34 -79 61 -128q24 -44 110 -74h87v-317h-132l-50 29l-14 -33q-64 6 -139 9zM1883 336q0 -236 -65 -236h-844v317h650q22 0 22 37q0 27 -68.5 149.5t-87.5 122.5l170 264q82 -68 158 -298q65 -230 65 -356zM1674 1431q-20 21 -122 21
q-26 0 -48 -3t-53 -44.5t-31 -69.5q0 -8 2 -13q26 -50 146 -50q36 0 67 8l151 42l-26 -144q-93 -23 -145 -46q-78 -37 -169 -107q-81 -62 -78 -62q-16 -3 -16 15q0 29 42 104q36 63 44 70q-13 0 -60 21q-55 24 -57 44q-11 112 85.5 248.5t192.5 136.5q29 0 68 -13
q54 -18 59 -18z" />
    <glyph glyph-name="u0626_u0649.isolated.glyphFC03" unicode="&#xfc03;" horiz-adv-x="2394" arabic-form="isolated" 
d="M1546 100h-329q-213 -1 -213 -16q0 -32 258 -138q128 -47 144 -91l7 -19l-68 -209q-29 -86 -286.5 -188.5t-541.5 -102.5q-213 0 -355.5 106.5t-142.5 320.5q0 190 135 451q98 162 141 172h1l3 -8q-8 -25 -39.5 -83l-81.5 -156.5t-50 -163.5q-20 -354 574 -354
q92 0 265 29q146 34 146 68q0 14 -247 120q-123 67 -124 86q-1 53 56.5 188.5t127.5 215.5q74 89 448 89h172v-317zM2395 336q0 -236 -65 -236h-844v317h650q22 0 22 37q0 27 -68.5 149.5t-87.5 122.5l170 264q82 -68 158 -298q65 -230 65 -356zM2186 1431q-20 21 -122 21
q-26 0 -48 -3t-53 -44.5t-31 -69.5q0 -8 2 -13q26 -50 146 -50q36 0 67 8l151 42l-26 -144q-93 -23 -145 -46q-78 -37 -169 -107q-81 -62 -78 -62q-16 -3 -16 15q0 29 42 104q36 63 44 70q-13 0 -60 21q-55 24 -57 44q-11 112 85.5 248.5t192.5 136.5q29 0 68 -13
q54 -18 59 -18z" />
    <glyph glyph-name="u0626_u064a.isolated.glyphFC04" unicode="&#xfc04;" horiz-adv-x="2394" arabic-form="isolated" 
d="M1546 100h-329q-213 -1 -213 -16q0 -32 258 -138q128 -47 144 -91l7 -19l-68 -209q-29 -86 -286.5 -188.5t-541.5 -102.5q-213 0 -355.5 106.5t-142.5 320.5q0 190 135 451q98 162 141 172h1l3 -8q-8 -25 -39.5 -83l-81.5 -156.5t-50 -163.5q-20 -354 574 -354
q92 0 265 29q146 34 146 68q0 14 -247 120q-123 67 -124 86q-1 53 56.5 188.5t127.5 215.5q74 89 448 89h172v-317zM584 -920l127 156l193 -164l-141 -166l-185 153l-127 -153l-190 161l140 167zM2395 336q0 -236 -65 -236h-844v317h650q22 0 22 37q0 27 -68.5 149.5
t-87.5 122.5l170 264q82 -68 158 -298q65 -230 65 -356zM2186 1431q-20 21 -122 21q-26 0 -48 -3t-53 -44.5t-31 -69.5q0 -8 2 -13q26 -50 146 -50q36 0 67 8l151 42l-26 -144q-93 -23 -145 -46q-78 -37 -169 -107q-81 -62 -78 -62q-16 -3 -16 15q0 29 42 104q36 63 44 70
q-13 0 -60 21q-55 24 -57 44q-11 112 85.5 248.5t192.5 136.5q29 0 68 -13q54 -18 59 -18z" />
    <glyph glyph-name="u0628_u062c.isolated.glyphFC05" unicode="&#xfc05;" horiz-adv-x="2372" arabic-form="isolated" 
d="M1524 100h-412q-298 0 -298 226q4 259 10 276q-326 -46 -472 -250.5t-146 -430.5q0 -161 138 -304.5t485 -143.5q197 7 418.5 56t234.5 59q-58 -98 -353 -285q-168 -125 -398 -125q-333 0 -492 192.5t-159 451.5q0 388 336 816q-33 19 -72 19q-173 0 -338 -129
q109 222 138 258q84 150 298 150q93 0 242.5 -34.5t272.5 -34.5q90 0 322 26l-82 -244l-279 -32l-2 -31q0 -108 37 -138.5t127 -30.5l444 1v-318zM570 134l292 -117l-107 -237l-286 120zM2373 336q0 -236 -65 -236h-844v317h650q22 0 22 37q0 27 -68.5 149.5t-87.5 122.5
l170 264q82 -68 158 -298q65 -230 65 -356zM1823 -100l292 -117l-107 -237l-286 120z" />
    <glyph glyph-name="u0628_u062d.isolated.glyphFC06" unicode="&#xfc06;" horiz-adv-x="2372" arabic-form="isolated" 
d="M1524 100h-412q-298 0 -298 226q4 259 10 276q-326 -46 -472 -250.5t-146 -430.5q0 -161 138 -304.5t485 -143.5q197 7 418.5 56t234.5 59q-58 -98 -353 -285q-168 -125 -398 -125q-333 0 -492 192.5t-159 451.5q0 388 336 816q-33 19 -72 19q-173 0 -338 -129
q109 222 138 258q84 150 298 150q93 0 242.5 -34.5t272.5 -34.5q90 0 322 26l-82 -244l-279 -32l-2 -31q0 -108 37 -138.5t127 -30.5l444 1v-318zM2373 336q0 -236 -65 -236h-844v317h650q22 0 22 37q0 27 -68.5 149.5t-87.5 122.5l170 264q82 -68 158 -298q65 -230 65 -356
zM1823 -100l292 -117l-107 -237l-286 120z" />
    <glyph glyph-name="u0628_u062e.isolated.glyphFC07" unicode="&#xfc07;" horiz-adv-x="2372" arabic-form="isolated" 
d="M1524 100h-412q-298 0 -298 226q4 259 10 276q-326 -46 -472 -250.5t-146 -430.5q0 -161 138 -304.5t485 -143.5q197 7 418.5 56t234.5 59q-58 -98 -353 -285q-168 -125 -398 -125q-333 0 -492 192.5t-159 451.5q0 388 336 816q-33 19 -72 19q-173 0 -338 -129
q109 222 138 258q84 150 298 150q93 0 242.5 -34.5t272.5 -34.5q90 0 322 26l-82 -244l-279 -32l-2 -31q0 -108 37 -138.5t127 -30.5l444 1v-318zM670 1490l292 -117l-107 -237l-286 120zM2373 336q0 -236 -65 -236h-844v317h650q22 0 22 37q0 27 -68.5 149.5t-87.5 122.5
l170 264q82 -68 158 -298q65 -230 65 -356zM1823 -100l292 -117l-107 -237l-286 120z" />
    <glyph glyph-name="u0628_u0645.isolated.glyphFC08" unicode="&#xfc08;" horiz-adv-x="1882" arabic-form="isolated" 
d="M699 105q-75 3 -167 13q-390 20 -391 -44l9 -37q4 -12 13 -51.5t35 -137.5q31 -140 43.5 -252t10.5 -200q0 -108 -78 -244q-17 180 -43 338t-61 297q-34 95 -46.5 161t-12.5 104q50 275 131 321q46 25 211.5 27t226.5 2q22 0 33 -4l-218 279l-279 -144l2 41q1 34 160 240
q115 116 214 116q89 0 159 -99l125 -212q34 -79 61 -128q24 -44 110 -74h87v-317h-132l-50 29l-14 -33q-64 6 -139 9zM1883 336q0 -236 -65 -236h-844v317h650q22 0 22 37q0 27 -68.5 149.5t-87.5 122.5l170 264q82 -68 158 -298q65 -230 65 -356zM1333 -100l292 -117
l-107 -237l-286 120z" />
    <glyph glyph-name="u0628_u0649.isolated.glyphFC09" unicode="&#xfc09;" horiz-adv-x="2394" arabic-form="isolated" 
d="M1546 100h-329q-213 -1 -213 -16q0 -32 258 -138q128 -47 144 -91l7 -19l-68 -209q-29 -86 -286.5 -188.5t-541.5 -102.5q-213 0 -355.5 106.5t-142.5 320.5q0 190 135 451q98 162 141 172h1l3 -8q-8 -25 -39.5 -83l-81.5 -156.5t-50 -163.5q-20 -354 574 -354
q92 0 265 29q146 34 146 68q0 14 -247 120q-123 67 -124 86q-1 53 56.5 188.5t127.5 215.5q74 89 448 89h172v-317zM2395 336q0 -236 -65 -236h-844v317h650q22 0 22 37q0 27 -68.5 149.5t-87.5 122.5l170 264q82 -68 158 -298q65 -230 65 -356zM1845 -100l292 -117
l-107 -237l-286 120z" />
    <glyph glyph-name="u0628_u064a.isolated.glyphFC0A" unicode="&#xfc0a;" horiz-adv-x="2394" arabic-form="isolated" 
d="M1546 100h-329q-213 -1 -213 -16q0 -32 258 -138q128 -47 144 -91l7 -19l-68 -209q-29 -86 -286.5 -188.5t-541.5 -102.5q-213 0 -355.5 106.5t-142.5 320.5q0 190 135 451q98 162 141 172h1l3 -8q-8 -25 -39.5 -83l-81.5 -156.5t-50 -163.5q-20 -354 574 -354
q92 0 265 29q146 34 146 68q0 14 -247 120q-123 67 -124 86q-1 53 56.5 188.5t127.5 215.5q74 89 448 89h172v-317zM584 -920l127 156l193 -164l-141 -166l-185 153l-127 -153l-190 161l140 167zM2395 336q0 -236 -65 -236h-844v317h650q22 0 22 37q0 27 -68.5 149.5
t-87.5 122.5l170 264q82 -68 158 -298q65 -230 65 -356zM1845 -100l292 -117l-107 -237l-286 120z" />
    <glyph glyph-name="u062a_u062c.isolated.glyphFC0B" unicode="&#xfc0b;" horiz-adv-x="2372" arabic-form="isolated" 
d="M1524 100h-412q-298 0 -298 226q4 259 10 276q-326 -46 -472 -250.5t-146 -430.5q0 -161 138 -304.5t485 -143.5q197 7 418.5 56t234.5 59q-58 -98 -353 -285q-168 -125 -398 -125q-333 0 -492 192.5t-159 451.5q0 388 336 816q-33 19 -72 19q-173 0 -338 -129
q109 222 138 258q84 150 298 150q93 0 242.5 -34.5t272.5 -34.5q90 0 322 26l-82 -244l-279 -32l-2 -31q0 -108 37 -138.5t127 -30.5l444 1v-318zM570 134l292 -117l-107 -237l-286 120zM2373 336q0 -236 -65 -236h-844v317h650q22 0 22 37q0 27 -68.5 149.5t-87.5 122.5
l170 264q82 -68 158 -298q65 -230 65 -356zM1920 1324l127 156l193 -164l-141 -166l-185 153l-127 -153l-190 161l140 167z" />
    <glyph glyph-name="u062a_u062d.isolated.glyphFC0C" unicode="&#xfc0c;" horiz-adv-x="2372" arabic-form="isolated" 
d="M1524 100h-412q-298 0 -298 226q4 259 10 276q-326 -46 -472 -250.5t-146 -430.5q0 -161 138 -304.5t485 -143.5q197 7 418.5 56t234.5 59q-58 -98 -353 -285q-168 -125 -398 -125q-333 0 -492 192.5t-159 451.5q0 388 336 816q-33 19 -72 19q-173 0 -338 -129
q109 222 138 258q84 150 298 150q93 0 242.5 -34.5t272.5 -34.5q90 0 322 26l-82 -244l-279 -32l-2 -31q0 -108 37 -138.5t127 -30.5l444 1v-318zM2373 336q0 -236 -65 -236h-844v317h650q22 0 22 37q0 27 -68.5 149.5t-87.5 122.5l170 264q82 -68 158 -298q65 -230 65 -356
zM1920 1324l127 156l193 -164l-141 -166l-185 153l-127 -153l-190 161l140 167z" />
    </font>
</defs>
</svg>
