<svg xmlns="http://www.w3.org/2000/svg" viewBox="-5034 -18 69.719 59.123">
  <defs>
    <style>
      .cls-1, .cls-2 {
        fill: none;
        stroke-linecap: round;
        stroke-linejoin: round;
        stroke-miterlimit: 10;
        stroke-width: 2px;
      }

      .cls-1 {
        stroke: #393b3f;
      }

      .cls-2 {
        stroke: #f3d70d;
      }
    </style>
  </defs>
  <g id="Asset_9" data-name="Asset 9" transform="translate(-5033 -17)">
    <path id="Shape" class="cls-1" d="M9.59,21.757A19.674,19.674,0,0,1,24.22,28.293h9.6L23.263,1.782A2.816,2.816,0,0,0,20.644,0H1.408A1.411,1.411,0,0,0,0,1.415V24.261a19.644,19.644,0,0,1,9.59-2.5Z" transform="translate(10.125 0)"/>
    <ellipse id="Oval" class="cls-1" cx="15.49" cy="15.561" rx="15.49" ry="15.561" transform="translate(4.224 26.001)"/>
    <path id="Shape-2" data-name="Shape" class="cls-1" d="M0,19.817A19.7,19.7,0,0,1,34.359,6.547" transform="translate(0 21.745)"/>
    <path id="Shape-3" data-name="Shape" class="cls-1" d="M16.63,11.331H0V0H12.688L16.63,11.331Z" transform="translate(15.757 5.659)"/>
    <path id="Shape-4" data-name="Shape" class="cls-1" d="M23.77,16.608V8.12A8.087,8.087,0,0,0,15.7,0H0" transform="translate(43.949 28.293)"/>
    <path id="Shape-5" data-name="Shape" class="cls-1" d="M5.633,0H0A10.7,10.7,0,0,1,.183,4.244H3.492A2.117,2.117,0,0,0,5.6,2.122Z" transform="translate(62.086 44.9)"/>
    <path id="Shape-6" data-name="Shape" class="cls-1" d="M1.408,0A13.127,13.127,0,0,1,0,4.244H9.857A10.6,10.6,0,0,1,10.04,0Z" transform="translate(33.43 44.9)"/>
    <ellipse id="Oval-2" data-name="Oval" class="cls-2" cx="3.281" cy="3.296" rx="3.281" ry="3.296" transform="translate(16.433 38.266)"/>
    <ellipse id="Oval-3" data-name="Oval" class="cls-1" cx="9.646" cy="9.69" rx="9.646" ry="9.69" transform="translate(43.16 37.714)"/>
    <ellipse id="Oval-4" data-name="Oval" class="cls-2" cx="2.816" cy="2.829" rx="2.816" ry="2.829" transform="translate(49.99 44.575)"/>
    <path id="Shape-7" data-name="Shape" class="cls-1" d="M0,0V8.389" transform="translate(53.51 19.918)"/>
    <path id="Shape-8" data-name="Shape" class="cls-1" d="M0,0H5.633" transform="translate(50.581 18.39)"/>
  </g>
</svg>
